<?xml version="1.0" encoding="utf-8"?>
<!-- Generator: Adobe Illustrator 22.0.0, SVG Export Plug-In . SVG Version: 6.00 Build 0)  -->
<svg version="1.1" baseProfile="basic" id="Layer_1"
	 xmlns="http://www.w3.org/2000/svg" xmlns:xlink="http://www.w3.org/1999/xlink" x="0px" y="0px" viewBox="0 0 1000 1000"
	 xml:space="preserve">
<style type="text/css">
	.st0{fill:#382B73;}
	.st1{fill:#473080;}
	.st2{fill:#FFFFFF;}
	.st3{fill:#E6E7E8;}
	.st4{fill:#FDDD3A;}
	.st5{fill:#E7AD27;}
	.st6{fill:#FFC633;}
	.st7{fill:#EE5A9C;}
	.st8{fill:#1CADE3;}
	.st9{fill:#177BBF;}
	.st10{fill:#D0D2D3;}
	.st11{fill:#A62973;}
	.st12{fill:#106EA0;}
	.st13{fill:#FFE36C;}
	.st14{fill:#2DBAA4;}
	.st15{fill:#00A48B;}
</style>
<g>
	<circle class="st0" cx="500" cy="500" r="398"/>
</g>
<g>
	<circle class="st1" cx="499.969" cy="500" r="344.33"/>
</g>
<g>
	<path class="st0" d="M758.716,536.5h-16.077l-6.255-39.852c-21.279-7.057-42.864-13.051-64.671-17.982l-0.002,0
		c-16.324-3.69-32.772-6.785-49.314-9.271l-47.365-57.761C556.056,388.492,527.177,375,496.625,375h-56.822
		c-22.058,0-43.488,7.101-60.905,20.182l-88.66,66.586h-36.881c-5.823,0-10.543,4.72-10.543,10.543v50.274h-1.569
		c-5.105,0-9.244,4.138-9.244,9.244v28.415c0,0.638,0.065,1.261,0.188,1.863c0.185,0.903,0.501,1.757,0.928,2.543
		c0.285,0.524,0.618,1.017,0.995,1.474c0.188,0.228,0.387,0.448,0.597,0.656c0.418,0.418,0.876,0.797,1.368,1.129
		c0.246,0.166,0.5,0.321,0.762,0.463c1.31,0.712,2.811,1.116,4.406,1.116h16.688l32.707,13.915h10.753
		c7.646,14.758,23.048,24.849,40.816,24.849s33.17-10.091,40.816-24.849h226.94c7.646,14.758,23.048,24.849,40.817,24.849
		c17.769,0,33.171-10.092,40.817-24.851c0,0.001,0,0.001,0,0.001l45.902,0.001h21.216c0.606,0,1.198-0.062,1.77-0.178
		c4.003-0.819,7.014-4.361,7.014-8.606v-29.333C767.5,540.433,763.567,536.5,758.716,536.5z M296.274,560.952
		c0.005-0.176,0.021-0.349,0.028-0.523c-0.014,0.343-0.02,0.688-0.026,1.033C296.279,561.291,296.269,561.123,296.274,560.952z
		 M296.361,559.32c0.005-0.075,0.007-0.151,0.012-0.227c0.008-0.108,0.021-0.215,0.03-0.323
		C296.389,558.954,296.373,559.136,296.361,559.32z M296.488,566.941c0-0.004,0-0.008-0.001-0.012c0,0.004,0,0.009,0.001,0.014
		L296.488,566.941z M296.876,569.855c-0.009-0.055-0.013-0.113-0.022-0.168c0.029,0.18,0.065,0.357,0.096,0.537
		C296.928,570.1,296.897,569.979,296.876,569.855z M340.172,516.396c0.123-0.005,0.244-0.018,0.368-0.022
		c0.272-0.01,0.54-0.003,0.811-0.008C340.958,516.374,340.563,516.379,340.172,516.396z M387.805,556.664
		c0.029,0.234,0.066,0.466,0.091,0.702c0.001,0.014,0.002,0.028,0.003,0.042C387.873,557.158,387.835,556.912,387.805,556.664z
		 M388.072,559.549c0.004,0.068,0.013,0.135,0.016,0.204c0.001,0.022,0.004,0.043,0.005,0.065c0,0.007,0,0.014,0,0.021
		C388.089,559.742,388.078,559.646,388.072,559.549z M604.847,560.954c0.005-0.176,0.021-0.349,0.028-0.525
		c-0.014,0.344-0.02,0.689-0.026,1.035C604.852,561.292,604.842,561.125,604.847,560.954z M604.934,559.321
		c0.005-0.076,0.007-0.152,0.012-0.228c0.008-0.109,0.021-0.217,0.03-0.326C604.962,558.951,604.946,559.135,604.934,559.321z
		 M648.743,516.396c0.123-0.005,0.244-0.018,0.367-0.022c0.273-0.01,0.542-0.003,0.813-0.008
		C649.53,516.374,649.135,516.379,648.743,516.396z M696.369,556.597c0.032,0.257,0.072,0.51,0.1,0.768
		c0.002,0.015,0.002,0.031,0.004,0.046C696.444,557.138,696.403,556.869,696.369,556.597z M696.642,559.509
		c0.005,0.083,0.015,0.163,0.02,0.246c0.001,0.021,0.004,0.042,0.005,0.063c0,0.008,0,0.017,0.001,0.025
		C696.661,559.731,696.648,559.621,696.642,559.509z"/>
</g>
<g>
	<path class="st7" d="M566.532,383.134C547.557,359.993,527.177,355,496.625,355h-56.822c-22.058,0-43.488,7.101-60.905,20.182
		l-100.683,75.616L630,458.667L566.532,383.134z"/>
</g>
<g>
	<path class="st8" d="M548.595,394.732C537.418,381.88,521.22,374.5,504.187,374.5h-68.32c-10.685,0-21.066,3.559-29.503,10.116
		l-73.541,57.152H589.5L548.595,394.732z"/>
</g>
<g>
	
		<ellipse transform="matrix(0.9239 -0.3827 0.3827 0.9239 -181.4794 172.2372)" class="st4" cx="342.208" cy="542.298" rx="45.953" ry="45.953"/>
</g>
<g>
	<circle class="st3" cx="342.208" cy="542.298" r="29.125"/>
</g>
<g>
	<path class="st9" d="M518.419,376.268l-34.393,65.5h15.383l31.854-60.665C527.195,378.994,522.882,377.381,518.419,376.268z"/>
</g>
<g>
	<path class="st9" d="M504.187,374.5h-7.042l-35.321,67.268h10.534l35.265-67.162C506.483,374.54,505.337,374.5,504.187,374.5z"/>
</g>
<g>
	<path class="st9" d="M548.595,394.732c-2.605-2.995-5.492-5.68-8.589-8.057l-28.928,55.093H589.5L548.595,394.732z"/>
</g>
<g>
	<path class="st9" d="M435.867,374.5c-10.685,0-21.066,3.559-29.503,10.116l-73.541,57.152h95.535L463.68,374.5H435.867z"/>
</g>
<g>
	
		<ellipse transform="matrix(0.9239 -0.3827 0.3827 0.9239 -181.4793 172.2372)" class="st2" cx="342.208" cy="542.298" rx="25.045" ry="25.045"/>
</g>
<g>
	
		<ellipse transform="matrix(0.9732 -0.2298 0.2298 0.9732 -107.1853 164.0254)" class="st4" cx="650.781" cy="542.298" rx="45.953" ry="45.953"/>
</g>
<g>
	<path class="st7" d="M750,563.402l-13.616-86.754l0,0c-69.667-23.104-142.589-34.88-215.987-34.88H253.356
		c-5.823,0-10.543,4.72-10.543,10.543v90.745l47.826,20.347h10.753c-3.468-6.693-5.351-14.339-5.117-22.45
		c0.691-24.039,20.232-43.727,44.266-44.578c26.14-0.925,47.621,19.991,47.621,45.924c0,7.611-1.861,14.783-5.137,21.104h226.94
		c-3.468-6.692-5.351-14.338-5.118-22.449c0.69-24.039,20.23-43.728,44.264-44.579c26.141-0.927,47.624,19.99,47.624,45.924
		c0,7.611-1.862,14.783-5.137,21.104H750z"/>
</g>
<g>
	<rect x="433.167" y="374.5" class="st7" width="13.763" height="67.268"/>
</g>
<g>
	<circle class="st3" cx="650.816" cy="542.298" r="29.125"/>
</g>
<g>
	<path class="st11" d="M296.274,540.952c0.035-1.208,0.13-2.402,0.258-3.586h-53.719v5.69l47.826,20.347h10.753
		C297.924,556.71,296.041,549.063,296.274,540.952z"/>
</g>
<g>
	<path class="st11" d="M750,563.402l-4.086-26.037h-49.445c0.173,1.621,0.265,3.266,0.265,4.932c0,7.611-1.862,14.783-5.137,21.104
		H750z"/>
</g>
<g>
	<path class="st11" d="M609.964,563.402c-3.468-6.692-5.351-14.338-5.118-22.449c0.035-1.209,0.13-2.403,0.258-3.588H387.896
		c0.173,1.621,0.265,3.266,0.265,4.932c0,7.611-1.861,14.783-5.137,21.104H609.964z"/>
</g>
<g>
	<path class="st4" d="M758.716,516.5H729.5l8,46.902h21.216c4.851,0,8.784-3.933,8.784-8.785v-29.333
		C767.5,520.433,763.567,516.5,758.716,516.5z"/>
</g>
<g>
	<path class="st5" d="M757.357,550.5h-22.058l2.201,12.902h21.216c4.851,0,8.784-3.933,8.784-8.785v-14.261
		C767.5,545.959,762.959,550.5,757.357,550.5z"/>
</g>
<g>
	<path class="st4" d="M241.244,502.585c-5.105,0-9.244,4.138-9.244,9.244v28.415c0,5.105,4.139,9.244,9.244,9.244H262v-46.902
		H241.244z"/>
</g>
<g>
	<path class="st5" d="M241.244,534.488c-5.105,0-9.244-4.139-9.244-9.244v15c0,5.105,4.139,9.244,9.244,9.244H262v-15H241.244z"/>
</g>
<g>
	<path class="st8" d="M255.401,458.667h-12.588v37.678h12.588c5.567,0,10.079-4.512,10.079-10.079v-17.52
		C265.48,463.179,260.967,458.667,255.401,458.667z"/>
</g>
<g>
	<path class="st4" d="M736.384,476.648h-22.783c-2.927,0-5.149,2.636-4.654,5.521l0,0c2.726,15.886,16.501,27.498,32.619,27.498
		L736.384,476.648z"/>
</g>
<g>
	<path class="st6" d="M737.007,480.624h-17.297c-2.222,0-3.909,2.001-3.533,4.191c2.07,12.06,12.527,20.876,24.764,20.876
		L737.007,480.624z"/>
</g>
<g>
	<path class="st11" d="M351.333,458.667h-21.167c-2.854,0-5.167,2.313-5.167,5.167v11.5c0,2.854,2.313,5.167,5.167,5.167h21.167
		c2.854,0,5.167-2.313,5.167-5.167v-11.5C356.5,460.98,354.187,458.667,351.333,458.667z"/>
</g>
<g>
	
		<ellipse transform="matrix(0.9732 -0.2298 0.2298 0.9732 -107.1852 164.0251)" class="st2" cx="650.781" cy="542.298" rx="25.045" ry="25.045"/>
</g>
<g>
	<path class="st11" d="M650.781,533.5c-4.859,0-8.798,3.939-8.798,8.798s3.939,8.798,8.798,8.798c4.859,0,8.798-3.939,8.798-8.798
		S655.64,533.5,650.781,533.5z"/>
</g>
<g>
	<path class="st5" d="M650.781,522.5c-2.098,0-3.798,1.7-3.798,3.798s1.7,3.798,3.798,3.798s3.798-1.7,3.798-3.798
		S652.878,522.5,650.781,522.5z"/>
</g>
<g>
	<path class="st5" d="M650.781,554.5c-2.098,0-3.798,1.7-3.798,3.798s1.7,3.798,3.798,3.798s3.798-1.7,3.798-3.798
		S652.878,554.5,650.781,554.5z"/>
</g>
<g>
	<path class="st5" d="M666.781,538.5c-2.098,0-3.798,1.7-3.798,3.798s1.7,3.798,3.798,3.798s3.798-1.7,3.798-3.798
		S668.878,538.5,666.781,538.5z"/>
</g>
<g>
	<path class="st5" d="M634.781,538.5c-2.098,0-3.798,1.7-3.798,3.798s1.7,3.798,3.798,3.798s3.798-1.7,3.798-3.798
		S636.878,538.5,634.781,538.5z"/>
</g>
<g>
	<path class="st5" d="M664.78,528.299c-1.483-1.483-3.888-1.483-5.371,0c-1.483,1.483-1.483,3.888,0,5.371
		c1.483,1.483,3.888,1.483,5.371,0C666.263,532.187,666.263,529.782,664.78,528.299z"/>
</g>
<g>
	<path class="st5" d="M642.153,550.926c-1.483-1.483-3.888-1.483-5.371,0c-1.483,1.483-1.483,3.888,0,5.371
		c1.483,1.483,3.888,1.483,5.371,0C643.636,554.814,643.636,552.409,642.153,550.926z"/>
</g>
<g>
	<path class="st5" d="M664.78,550.926c-1.483-1.483-3.888-1.483-5.371,0c-1.483,1.483-1.483,3.888,0,5.371
		c1.483,1.483,3.888,1.483,5.371,0C666.263,554.814,666.263,552.409,664.78,550.926z"/>
</g>
<g>
	<path class="st5" d="M642.153,528.299c-1.483-1.483-3.888-1.483-5.371,0c-1.483,1.483-1.483,3.888,0,5.371
		c1.483,1.483,3.888,1.483,5.371,0C643.636,532.187,643.636,529.782,642.153,528.299z"/>
</g>
<g>
	<circle class="st11" cx="342.208" cy="542.298" r="8.798"/>
</g>
<g>
	<circle class="st5" cx="342.208" cy="526.298" r="3.798"/>
</g>
<g>
	<circle class="st5" cx="342.208" cy="558.298" r="3.798"/>
</g>
<g>
	<circle class="st5" cx="358.208" cy="542.298" r="3.798"/>
</g>
<g>
	<circle class="st5" cx="326.208" cy="542.298" r="3.798"/>
</g>
<g>
	<path class="st5" d="M356.207,528.299c-1.483-1.483-3.888-1.483-5.371,0c-1.483,1.483-1.483,3.888,0,5.371
		c1.483,1.483,3.888,1.483,5.371,0C357.691,532.187,357.691,529.782,356.207,528.299z"/>
</g>
<g>
	<path class="st5" d="M333.58,550.926c-1.483-1.483-3.888-1.483-5.371,0c-1.483,1.483-1.483,3.888,0,5.371
		c1.483,1.483,3.888,1.483,5.371,0C335.063,554.814,335.063,552.409,333.58,550.926z"/>
</g>
<g>
	<path class="st5" d="M356.207,550.926c-1.483-1.483-3.888-1.483-5.371,0c-1.483,1.483-1.483,3.888,0,5.371
		c1.483,1.483,3.888,1.483,5.371,0C357.691,554.814,357.691,552.409,356.207,550.926z"/>
</g>
<g>
	<path class="st5" d="M333.58,528.299c-1.483-1.483-3.888-1.483-5.371,0c-1.483,1.483-1.483,3.888,0,5.371
		c1.483,1.483,3.888,1.483,5.371,0C335.063,532.187,335.063,529.782,333.58,528.299z"/>
</g>
<g>
	<path class="st2" d="M693.921,476.648h-20.329c-3.825,0-6.926,3.101-6.926,6.926s3.101,6.926,6.926,6.926h20.329
		c3.825,0,6.926-3.101,6.926-6.926S697.746,476.648,693.921,476.648z"/>
</g>
<g>
	<path class="st2" d="M303.665,476.648h-20.329c-3.825,0-6.926,3.101-6.926,6.926s3.101,6.926,6.926,6.926h20.329
		c3.825,0,6.926-3.101,6.926-6.926S307.49,476.648,303.665,476.648z"/>
</g>
<g>
	<rect x="433.167" y="374.5" class="st3" width="6.881" height="162.866"/>
</g>
<g>
	<path class="st9" d="M576.254,426.537h-19.189c-9.462,0-17.987,6.033-20.812,15.064c-0.017,0.056-0.034,0.111-0.052,0.167H589.5
		L576.254,426.537z"/>
</g>
<g>
	<path class="st9" d="M472.232,415.169c-1.306-4.185-5.181-7.035-9.565-7.035l0,0c-6.759,0-11.579,6.554-9.565,13.006l6.438,20.628
		h20.994L472.232,415.169z"/>
</g>
<g>
	<path class="st8" d="M388.67,415.169c-1.306-4.185-5.181-7.035-9.565-7.035c-6.759,0-11.579,6.554-9.566,13.006l6.438,20.628
		h20.994L388.67,415.169z"/>
</g>
<g>
	<polygon class="st3" points="678.413,476.648 673.239,476.648 675.826,490.5 681,490.5 	"/>
</g>
<g>
	<polygon class="st3" points="689.83,476.648 684.655,476.648 687.242,490.5 692.417,490.5 	"/>
</g>
<g>
	<polygon class="st3" points="289.085,476.648 283.911,476.648 286.498,490.5 291.672,490.5 	"/>
</g>
<g>
	<polygon class="st3" points="300.502,476.648 295.328,476.648 297.915,490.5 303.089,490.5 	"/>
</g>
<g>
	<path class="st3" d="M640.169,452.311H242.813v6.356h428.9C661.247,456.3,650.729,454.183,640.169,452.311z"/>
</g>
<g>
	<path class="st11" d="M582.263,426.025h-3.627v31.486h3.627c6.722,0,12.171-5.449,12.171-12.171v-7.144
		C594.434,431.474,588.985,426.025,582.263,426.025z"/>
</g>
<g>
	<path class="st2" d="M577.354,428.167c-1.576,0-2.854,1.278-2.854,2.854v20.792c0,1.576,1.278,2.854,2.854,2.854h1.282v-26.5
		H577.354z"/>
</g>
<g>
	<rect x="242.813" y="473.5" class="st9" width="22.667" height="13.5"/>
</g>
</svg>
