<?xml version="1.0" encoding="utf-8"?>
<!-- Generator: Adobe Illustrator 22.0.0, SVG Export Plug-In . SVG Version: 6.00 Build 0)  -->
<svg version="1.1" baseProfile="basic" id="Layer_1"
	 xmlns="http://www.w3.org/2000/svg" xmlns:xlink="http://www.w3.org/1999/xlink" x="0px" y="0px" viewBox="0 0 1000 1000"
	 xml:space="preserve">
<style type="text/css">
	.st0{fill:#382B73;}
	.st1{fill:#473080;}
	.st2{fill:#FFFFFF;}
	.st3{fill:#E6E7E8;}
	.st4{fill:#FDDD3A;}
	.st5{fill:#E7AD27;}
	.st6{fill:#FFC633;}
	.st7{fill:#EE5A9C;}
	.st8{fill:#1CADE3;}
	.st9{fill:#177BBF;}
	.st10{fill:#D0D2D3;}
	.st11{fill:#A62973;}
	.st12{fill:#106EA0;}
	.st13{fill:#FFE36C;}
	.st14{fill:#2DBAA4;}
	.st15{fill:#00A48B;}
</style>
<g>
	<circle class="st0" cx="500" cy="500" r="398"/>
</g>
<g>
	<circle class="st1" cx="499.969" cy="500" r="344.33"/>
</g>
<g>
	<path class="st0" d="M756.856,611.553h-11.094l-0.993-9.471l-0.421-4.338l-0.431-4.607h-0.016l-0.685-7.065
		c2.877-2.337,4.619-7.868,4.137-14.274c-0.508-6.745-3.326-12.392-6.782-14.312l0,0c0,0-0.001,0-0.001,0
		c-0.161-0.09-0.324-0.164-0.488-0.237c-0.086-0.039-0.173-0.078-0.261-0.112c-0.14-0.054-0.28-0.103-0.422-0.145
		c-0.006-0.001-0.011-0.004-0.017-0.006c-3.164-8.945-11.665-15.237-21.531-15.237h-18.524l-2.69-35.779h11.286v18.986
		c0,2.107,1.708,3.815,3.814,3.815h9.91c2.106,0,3.814-1.708,3.814-3.815v-24.247h-0.151c-0.645-3.007-3.314-5.262-6.514-5.262
		h-22.951l-0.628-8.353l-1.007-13.395l-5.809-77.256c-1.454-19.341-17.571-34.291-36.966-34.291H285.125
		c-20.473,0-37.07,16.597-37.07,37.07v155.156h-4.999c-2.47,0-4.472,2.002-4.472,4.472v48.232c0,2.47,2.002,4.472,4.472,4.472h0.088
		c-2.519,0-4.56,2.042-4.56,4.56v21.397c0,2.204,1.563,4.042,3.641,4.468c0.297,0.061,0.604,0.093,0.919,0.093h97.22
		c0,19.76,16.019,35.779,35.779,35.779s35.779-16.019,35.779-35.779h196.129c0,19.76,16.019,35.779,35.779,35.779
		s35.779-16.019,35.779-35.779h77.247c0.315,0,0.622-0.032,0.919-0.093c2.078-0.425,3.641-2.264,3.641-4.468v-21.397
		C761.417,613.594,759.375,611.553,756.856,611.553z"/>
</g>
<g>
	<path class="st4" d="M688.402,376.441c-1.454-19.341-17.571-34.291-36.966-34.291H285.125c-20.473,0-37.07,16.597-37.07,37.07
		v242.85h458.817L688.402,376.441z"/>
</g>
<g>
	<polygon class="st6" points="694.211,453.697 248.054,453.697 248.054,467.378 695.24,467.378 	"/>
</g>
<g>
	<path class="st2" d="M243.144,591.553c-2.519,0-4.56,2.042-4.56,4.56v21.397c0,2.519,2.042,4.56,4.56,4.56h40.164v-30.518H243.144z
		"/>
</g>
<g>
	<path class="st10" d="M243.144,612.599c-2.519,0-4.56-2.042-4.56-4.56v9.471c0,2.519,2.042,4.56,4.56,4.56h40.164v-9.471H243.144z"
		/>
</g>
<g>
	<path class="st7" d="M260.945,534.376h-17.89c-2.47,0-4.472,2.002-4.472,4.472v48.232c0,2.47,2.002,4.472,4.472,4.472h17.89
		c2.47,0,4.473-2.002,4.473-4.472v-48.232C265.418,536.379,263.416,534.376,260.945,534.376z"/>
</g>
<g>
	<rect x="238.583" y="552.354" class="st11" width="26.834" height="20.783"/>
</g>
<g>
	<path class="st4" d="M740.589,542.225c-1.221-11.639-11.034-20.477-22.737-20.477H604.444V622.07h144.52L740.589,542.225z"/>
</g>
<g>
	<rect x="283.308" y="612.95" class="st5" width="465.656" height="9.12"/>
</g>
<g>
	<path class="st5" d="M718.797,475.446h-22.951l0.792,10.523h28.824v-3.859C725.462,478.429,722.478,475.446,718.797,475.446z"/>
</g>
<g>
	<path class="st5" d="M707.923,480.707v24.247c0,2.107,1.708,3.815,3.814,3.815h9.91c2.106,0,3.814-1.708,3.814-3.815v-24.247
		H707.923z"/>
</g>
<g>
	<path class="st8" d="M654.12,366.354H308.172c-7.049,0-12.763,5.714-12.763,12.762v53.008h371.473v-53.008
		C666.882,372.068,661.168,366.354,654.12,366.354z"/>
</g>
<g>
	<path class="st8" d="M655.906,481.584H306.385c-6.062,0-10.976,4.914-10.976,10.976v43.819c0,6.062,4.914,10.976,10.976,10.976
		h360.498V492.56C666.882,486.498,661.968,481.584,655.906,481.584z"/>
</g>
<g>
	<rect x="376.143" y="476.323" class="st4" width="11.392" height="78.399"/>
</g>
<g>
	<path class="st8" d="M305.494,481.584c-5.57,0-10.085,4.515-10.085,10.085V612.95h80.503V481.584H305.494z"/>
</g>
<g>
	<path class="st2" d="M756.856,591.553h-40.164v30.518h40.164c2.519,0,4.56-2.042,4.56-4.56v-21.397
		C761.417,593.594,759.375,591.553,756.856,591.553z"/>
</g>
<g>
	<path class="st10" d="M756.856,612.775h-40.164v9.296h40.164c2.519,0,4.56-2.042,4.56-4.56v-9.296
		C761.417,610.733,759.375,612.775,756.856,612.775z"/>
</g>
<g>
	<rect x="295.409" y="573.137" class="st9" width="80.733" height="39.813"/>
</g>
<g>
	<rect x="348.552" y="481.584" class="st9" width="6.314" height="104.181"/>
</g>
<g>
	<path class="st7" d="M418.685,526.56c-0.896-2.863-3.548-4.812-6.548-4.812c-4.631,0-7.933,4.493-6.549,8.913l5.228,16.694h14.382
		L418.685,526.56z"/>
</g>
<g>
	<path class="st7" d="M462.883,526.56c-0.896-2.863-3.549-4.812-6.549-4.812c-4.631,0-7.933,4.493-6.549,8.913l5.228,16.694h14.382
		L462.883,526.56z"/>
</g>
<g>
	<path class="st7" d="M507.081,526.56c-0.896-2.863-3.549-4.812-6.549-4.812l0,0c-4.631,0-7.933,4.493-6.548,8.913l5.228,16.694
		h14.382L507.081,526.56z"/>
</g>
<g>
	<path class="st7" d="M551.278,526.56c-0.896-2.863-3.548-4.812-6.548-4.812c-4.631,0-7.933,4.493-6.549,8.913l5.228,16.694h14.382
		L551.278,526.56z"/>
</g>
<g>
	<path class="st7" d="M595.477,526.56c-0.896-2.863-3.549-4.812-6.549-4.812c-4.631,0-7.933,4.493-6.549,8.913l5.228,16.694h14.382
		L595.477,526.56z"/>
</g>
<g>
	<path class="st7" d="M639.674,526.56c-0.896-2.863-3.549-4.812-6.549-4.812l0,0c-4.631,0-7.933,4.493-6.548,8.913l5.228,16.694
		h14.382L639.674,526.56z"/>
</g>
<g>
	<path class="st7" d="M329.587,411.329c-0.896-2.863-3.549-4.812-6.549-4.812c-4.631,0-7.933,4.493-6.549,8.913l5.228,16.694H336.1
		L329.587,411.329z"/>
</g>
<g>
	<path class="st7" d="M373.785,411.329c-0.896-2.863-3.549-4.812-6.549-4.812c-4.631,0-7.933,4.493-6.548,8.913l5.228,16.694h14.382
		L373.785,411.329z"/>
</g>
<g>
	<path class="st7" d="M417.983,411.329c-0.896-2.863-3.549-4.812-6.549-4.812c-4.631,0-7.933,4.493-6.549,8.913l5.228,16.694h14.382
		L417.983,411.329z"/>
</g>
<g>
	<path class="st7" d="M462.181,411.329c-0.896-2.863-3.549-4.812-6.549-4.812l0,0c-4.631,0-7.933,4.493-6.549,8.913l5.228,16.694
		h14.382L462.181,411.329z"/>
</g>
<g>
	<path class="st7" d="M506.379,411.329c-0.896-2.863-3.549-4.812-6.549-4.812c-4.631,0-7.933,4.493-6.548,8.913l5.228,16.694h14.382
		L506.379,411.329z"/>
</g>
<g>
	<path class="st7" d="M550.577,411.329c-0.896-2.863-3.549-4.812-6.549-4.812c-4.631,0-7.933,4.493-6.549,8.913l5.228,16.694h14.382
		L550.577,411.329z"/>
</g>
<g>
	<path class="st7" d="M594.775,411.329c-0.896-2.863-3.549-4.812-6.549-4.812c-4.631,0-7.933,4.493-6.549,8.913l5.228,16.694h14.382
		L594.775,411.329z"/>
</g>
<g>
	<path class="st7" d="M638.973,411.329c-0.896-2.863-3.549-4.812-6.549-4.812c-4.631,0-7.933,4.493-6.548,8.913l5.228,16.694h14.382
		L638.973,411.329z"/>
</g>
<g>
	<rect x="475.45" y="476.323" class="st4" width="11.392" height="78.399"/>
</g>
<g>
	<rect x="574.757" y="476.323" class="st4" width="11.392" height="78.399"/>
</g>
<g>
	<rect x="376.143" y="361.092" class="st4" width="11.392" height="78.399"/>
</g>
<g>
	<rect x="475.45" y="361.092" class="st4" width="11.392" height="78.399"/>
</g>
<g>
	<rect x="574.757" y="361.092" class="st4" width="11.392" height="78.399"/>
</g>
<g>
	<rect x="295.409" y="399.239" class="st10" width="371.473" height="32.885"/>
</g>
<g>
	<rect x="387.535" y="514.469" class="st10" width="279.348" height="32.885"/>
</g>
<g>
	<polygon class="st6" points="742.983,563.666 387.535,563.666 387.535,582.082 744.77,582.082 	"/>
</g>
<g>
	<path class="st2" d="M747.354,551.798c-0.634-8.419-4.864-15.144-9.447-15.021c-4.583,0.123-7.785,7.047-7.151,15.466
		c0.634,8.419,4.864,15.144,9.447,15.021C744.786,567.141,747.987,560.217,747.354,551.798z"/>
</g>
<g>
	<path class="st5" d="M735.755,552.242c-0.52-6.897,1.537-12.784,4.817-14.757c-0.858-0.477-1.754-0.733-2.665-0.709
		c-4.583,0.123-7.785,7.047-7.151,15.466c0.634,8.419,4.863,15.144,9.447,15.021c0.829-0.022,1.61-0.273,2.333-0.709
		C739.08,564.635,736.263,558.987,735.755,552.242z"/>
</g>
<g>
	<polygon class="st5" points="743.917,573.137 387.535,573.137 387.535,582.082 744.755,582.082 	"/>
</g>
<g>
	<circle class="st5" cx="376.143" cy="622.07" r="35.779"/>
</g>
<g>
	<circle class="st2" cx="376.143" cy="624.701" r="33.148"/>
</g>
<g>
	<circle class="st10" cx="376.143" cy="624.701" r="23.974"/>
</g>
<g>
	<path class="st10" d="M376.143,605.233c-10.752,0-19.468,8.716-19.468,19.468s8.716,19.468,19.468,19.468
		s19.468-8.716,19.468-19.468S386.895,605.233,376.143,605.233z"/>
</g>
<g>
	<path class="st10" d="M376.143,615.987c-4.813,0-8.715,3.902-8.715,8.715c0,4.813,3.902,8.715,8.715,8.715s8.715-3.902,8.715-8.715
		C384.857,619.888,380.956,615.987,376.143,615.987z"/>
</g>
<g>
	<path class="st10" d="M376.143,635.225c-1.486,0-2.691,1.205-2.691,2.691s1.205,2.691,2.691,2.691s2.691-1.205,2.691-2.691
		S377.629,635.225,376.143,635.225z"/>
</g>
<g>
	<path class="st10" d="M376.143,608.796c-1.486,0-2.691,1.205-2.691,2.691s1.205,2.691,2.691,2.691s2.691-1.205,2.691-2.691
		S377.629,608.796,376.143,608.796z"/>
</g>
<g>
	<circle class="st10" cx="362.928" cy="624.701" r="2.691"/>
</g>
<g>
	<path class="st10" d="M389.357,622.01c-1.486,0-2.691,1.205-2.691,2.691c0,1.486,1.205,2.691,2.691,2.691
		c1.486,0,2.691-1.205,2.691-2.691C392.048,623.215,390.843,622.01,389.357,622.01z"/>
</g>
<g>
	<path class="st10" d="M368.702,632.142c-1.051-1.051-2.755-1.051-3.806,0c-1.051,1.051-1.051,2.755,0,3.806
		c1.051,1.051,2.755,1.051,3.806,0C369.752,634.897,369.752,633.193,368.702,632.142z"/>
</g>
<g>
	<path class="st10" d="M387.39,613.454c-1.051-1.051-2.755-1.051-3.806,0c-1.051,1.051-1.051,2.755,0,3.806
		c1.051,1.051,2.755,1.051,3.806,0S388.44,614.505,387.39,613.454z"/>
</g>
<g>
	<path class="st10" d="M368.702,613.454c-1.051-1.051-2.755-1.051-3.806,0c-1.051,1.051-1.051,2.755,0,3.806
		c1.051,1.051,2.755,1.051,3.806,0C369.752,616.209,369.752,614.505,368.702,613.454z"/>
</g>
<g>
	<path class="st10" d="M387.39,632.142c-1.051-1.051-2.755-1.051-3.806,0c-1.051,1.051-1.051,2.755,0,3.806
		c1.051,1.051,2.755,1.051,3.806,0S388.44,633.193,387.39,632.142z"/>
</g>
<g>
	<path class="st10" d="M395.266,621.106c-1.689,9.032-9.601,15.873-19.123,15.873s-17.434-6.84-19.123-15.873
		c-0.218,1.167-0.345,2.365-0.345,3.595c0,10.752,8.716,19.468,19.468,19.468s19.468-8.716,19.468-19.468
		C395.611,623.471,395.483,622.272,395.266,621.106z"/>
</g>
<g>
	<circle class="st5" cx="643.831" cy="622.07" r="35.779"/>
</g>
<g>
	<circle class="st2" cx="643.831" cy="624.701" r="33.148"/>
</g>
<g>
	<circle class="st10" cx="643.831" cy="624.701" r="23.974"/>
</g>
<g>
	<circle class="st10" cx="643.831" cy="624.701" r="19.468"/>
</g>
<g>
	<path class="st10" d="M643.831,615.987c-4.813,0-8.715,3.902-8.715,8.715c0,4.813,3.902,8.715,8.715,8.715s8.715-3.902,8.715-8.715
		C652.545,619.888,648.644,615.987,643.831,615.987z"/>
</g>
<g>
	<circle class="st10" cx="643.831" cy="637.916" r="2.691"/>
</g>
<g>
	<circle class="st10" cx="643.831" cy="611.487" r="2.691"/>
</g>
<g>
	<path class="st10" d="M630.616,622.01c-1.486,0-2.691,1.205-2.691,2.691c0,1.486,1.205,2.691,2.691,2.691s2.691-1.205,2.691-2.691
		C633.307,623.215,632.103,622.01,630.616,622.01z"/>
</g>
<g>
	<path class="st10" d="M657.045,622.01c-1.486,0-2.691,1.205-2.691,2.691c0,1.486,1.205,2.691,2.691,2.691s2.691-1.205,2.691-2.691
		C659.736,623.215,658.531,622.01,657.045,622.01z"/>
</g>
<g>
	<path class="st10" d="M636.39,632.142c-1.051-1.051-2.755-1.051-3.806,0c-1.051,1.051-1.051,2.755,0,3.806
		c1.051,1.051,2.755,1.051,3.806,0C637.44,634.897,637.44,633.193,636.39,632.142z"/>
</g>
<g>
	<path class="st10" d="M655.078,613.454c-1.051-1.051-2.755-1.051-3.806,0c-1.051,1.051-1.051,2.755,0,3.806
		c1.051,1.051,2.755,1.051,3.806,0C656.128,616.209,656.128,614.505,655.078,613.454z"/>
</g>
<g>
	<path class="st10" d="M636.39,613.454c-1.051-1.051-2.755-1.051-3.806,0c-1.051,1.051-1.051,2.755,0,3.806
		c1.051,1.051,2.755,1.051,3.806,0C637.44,616.209,637.44,614.505,636.39,613.454z"/>
</g>
<g>
	<path class="st10" d="M655.078,632.142c-1.051-1.051-2.755-1.051-3.806,0c-1.051,1.051-1.051,2.755,0,3.806
		c1.051,1.051,2.755,1.051,3.806,0C656.128,634.897,656.128,633.193,655.078,632.142z"/>
</g>
<g>
	<path class="st10" d="M662.953,621.106c-1.688,9.032-9.601,15.873-19.123,15.873s-17.434-6.84-19.123-15.873
		c-0.218,1.167-0.346,2.365-0.346,3.595c0,10.752,8.716,19.468,19.468,19.468s19.468-8.716,19.468-19.468
		C663.299,623.471,663.171,622.272,662.953,621.106z"/>
</g>
<g>
	<polygon class="st5" points="695.24,467.378 248.054,467.378 248.054,472.639 695.635,472.639 	"/>
</g>
</svg>
