<?xml version="1.0" encoding="utf-8"?>
<!-- Generator: Adobe Illustrator 22.0.0, SVG Export Plug-In . SVG Version: 6.00 Build 0)  -->
<svg version="1.1" baseProfile="basic" id="Layer_1"
	 xmlns="http://www.w3.org/2000/svg" xmlns:xlink="http://www.w3.org/1999/xlink" x="0px" y="0px" viewBox="0 0 1000 1000"
	 xml:space="preserve">
<style type="text/css">
	.st0{fill:#382B73;}
	.st1{fill:#473080;}
	.st2{fill:#FFFFFF;}
	.st3{fill:#E6E7E8;}
	.st4{fill:#FDDD3A;}
	.st5{fill:#E7AD27;}
	.st6{fill:#FFC633;}
	.st7{fill:#EE5A9C;}
	.st8{fill:#1CADE3;}
	.st9{fill:#177BBF;}
	.st10{fill:#D0D2D3;}
	.st11{fill:#A62973;}
	.st12{fill:#106EA0;}
	.st13{fill:#FFE36C;}
	.st14{fill:#2DBAA4;}
	.st15{fill:#00A48B;}
</style>
<g>
	<circle class="st0" cx="500" cy="500" r="398"/>
</g>
<g>
	<circle class="st1" cx="499.969" cy="500" r="344.33"/>
</g>
<g>
	<path class="st3" d="M267.606,531.75v51.664c0,1.767,1.131,3.398,2.84,3.85c8.95,2.366,15.807,15.743,15.807,31.892
		c0,16.148-6.856,29.525-15.807,31.892c-1.708,0.452-2.84,2.083-2.84,3.85v51.664h411.386V531.75H267.606z"/>
</g>
<g>
	<path class="st7" d="M558.289,217.734L267.395,508.627l36.532,36.532c1.25,1.25,3.203,1.603,4.73,0.714
		c8.002-4.656,22.31-0.045,33.728,11.374c11.419,11.418,16.03,25.726,11.374,33.728c-0.889,1.527-0.535,3.481,0.714,4.73
		l36.532,36.531l290.894-290.894L558.289,217.734z"/>
</g>
<g>
	
		<rect x="454.378" y="556.87" transform="matrix(0.7071 -0.7071 0.7071 0.7071 -262.1471 487.9001)" class="st11" width="6.992" height="7.039"/>
</g>
<g>
	
		<rect x="445.252" y="547.744" transform="matrix(0.7071 -0.7071 0.7071 0.7071 -258.3686 478.7877)" class="st11" width="6.992" height="7.039"/>
</g>
<g>
	
		<rect x="436.127" y="538.619" transform="matrix(0.7071 -0.7071 0.7071 0.7071 -254.5891 469.6662)" class="st11" width="6.993" height="7.039"/>
</g>
<g>
	
		<rect x="427.001" y="529.493" transform="matrix(0.7071 -0.7071 0.7071 0.7071 -250.8068 460.5193)" class="st11" width="6.992" height="7.039"/>
</g>
<g>
	
		<rect x="417.876" y="520.368" transform="matrix(0.7071 -0.7071 0.7071 0.7071 -247.0274 451.398)" class="st11" width="6.992" height="7.039"/>
</g>
<g>
	
		<rect x="408.75" y="511.242" transform="matrix(0.7071 -0.7071 0.7071 0.7071 -243.2471 442.2684)" class="st11" width="6.992" height="7.039"/>
</g>
<g>
	
		<rect x="399.625" y="502.117" transform="matrix(0.7071 -0.7071 0.7071 0.7071 -239.4676 433.147)" class="st11" width="6.992" height="7.039"/>
</g>
<g>
	
		<rect x="390.499" y="492.991" transform="matrix(0.7071 -0.7071 0.7071 0.7071 -235.689 424.0331)" class="st11" width="6.992" height="7.039"/>
</g>
<g>
	
		<rect x="381.374" y="483.866" transform="matrix(0.7071 -0.7071 0.7071 0.7071 -231.9073 414.8921)" class="st11" width="6.992" height="7.039"/>
</g>
<g>
	
		<rect x="372.248" y="474.74" transform="matrix(0.7071 -0.7071 0.7071 0.7071 -228.1273 405.7667)" class="st11" width="6.992" height="7.039"/>
</g>
<g>
	
		<rect x="363.123" y="465.615" transform="matrix(0.7071 -0.7071 0.7071 0.7071 -224.3474 396.6412)" class="st11" width="6.992" height="7.039"/>
</g>
<g>
	
		<rect x="353.997" y="456.489" transform="matrix(0.7071 -0.7071 0.7071 0.7071 -220.568 387.5193)" class="st11" width="6.992" height="7.039"/>
</g>
<g>
	
		<rect x="344.872" y="447.364" transform="matrix(0.7071 -0.7071 0.7071 0.7071 -216.7876 378.3904)" class="st11" width="6.992" height="7.039"/>
</g>
<g>
	
		<rect x="335.746" y="438.238" transform="matrix(0.7071 -0.7071 0.7071 0.7071 -213.0082 369.2683)" class="st11" width="6.992" height="7.039"/>
</g>
<g>
	
		<rect x="364.815" y="394.165" transform="matrix(0.7071 -0.7071 0.7071 0.7071 -157.0715 417.9701)" class="st4" width="122.367" height="8.844"/>
</g>
<g>
	
		<rect x="389.83" y="419.18" transform="matrix(0.7071 -0.7071 0.7071 0.7071 -167.4332 442.9857)" class="st4" width="122.367" height="8.844"/>
</g>
<g>
	
		<rect x="414.846" y="444.196" transform="matrix(0.7071 -0.7071 0.7071 0.7071 -177.7949 468.0009)" class="st4" width="122.367" height="8.844"/>
</g>
<g>
	
		<rect x="439.861" y="469.211" transform="matrix(0.7071 -0.7071 0.7071 0.7071 -188.1567 493.0157)" class="st4" width="122.367" height="8.844"/>
</g>
<g>
	<path class="st2" d="M545.949,301.794c-3.974-4.713-9.593-7.864-15.735-8.393c-7.504-0.646-10.932,2.782-10.286,10.286
		c0.529,6.142,3.681,11.761,8.393,15.735l68.204,57.519l6.943-6.943L545.949,301.794z"/>
</g>
<g>
	<path class="st2" d="M537.168,321.634l-12.961,39.518c-2.13,6.493-0.426,13.633,4.406,18.465l1.553,1.553l21.093-45.445
		L537.168,321.634z"/>
</g>
<g>
	<path class="st2" d="M606.144,302.086c-4.832-4.832-11.972-6.536-18.465-4.406l-39.518,12.961l14.091,14.092l45.445-21.093
		L606.144,302.086z"/>
</g>
<g>
	<path class="st2" d="M591.607,364.212l-9.49,16.253c-1.823,3.123-1.312,7.082,1.245,9.639l17.068-17.068L591.607,364.212z"/>
</g>
<g>
	<path class="st2" d="M606.992,355.59l-16.253,9.49l8.823,8.823l17.068-17.068C614.074,354.278,610.115,353.766,606.992,355.59z"/>
</g>
<g>
	<path class="st7" d="M639.397,332.316l-371.79,176.098l22.115,46.691c0.756,1.597,2.477,2.587,4.214,2.264
		c9.102-1.693,21.025,7.462,27.937,22.056c6.912,14.594,6.442,29.619-0.634,35.589c-1.351,1.139-1.675,3.098-0.919,4.695
		l22.115,46.691l371.79-176.098L639.397,332.316z"/>
</g>
<g>
	
		<rect x="426.08" y="617.711" transform="matrix(0.9037 -0.4281 0.4281 0.9037 -224.5783 243.6791)" class="st11" width="6.992" height="7.039"/>
</g>
<g>
	
		<rect x="420.555" y="606.047" transform="matrix(0.9038 -0.4281 0.4281 0.9038 -220.116 240.1893)" class="st11" width="6.992" height="7.039"/>
</g>
<g>
	
		<rect x="415.031" y="594.384" transform="matrix(0.9038 -0.4281 0.4281 0.9038 -215.6551 236.702)" class="st11" width="6.992" height="7.039"/>
</g>
<g>
	
		<rect x="409.507" y="582.721" transform="matrix(0.9038 -0.4281 0.4281 0.9038 -211.1942 233.2147)" class="st11" width="6.992" height="7.039"/>
</g>
<g>
	
		<rect x="403.982" y="571.057" transform="matrix(0.9038 -0.4281 0.4281 0.9038 -206.7333 229.7274)" class="st11" width="6.992" height="7.039"/>
</g>
<g>
	
		<rect x="398.458" y="559.394" transform="matrix(0.9038 -0.4281 0.4281 0.9038 -202.2725 226.2401)" class="st11" width="6.992" height="7.039"/>
</g>
<g>
	
		<rect x="392.934" y="547.731" transform="matrix(0.9038 -0.4281 0.4281 0.9038 -197.8115 222.7528)" class="st11" width="6.992" height="7.039"/>
</g>
<g>
	
		<rect x="387.409" y="536.068" transform="matrix(0.9038 -0.4281 0.4281 0.9038 -193.3508 219.2655)" class="st11" width="6.992" height="7.039"/>
</g>
<g>
	
		<rect x="381.885" y="524.404" transform="matrix(0.9038 -0.4281 0.4281 0.9038 -188.8899 215.7782)" class="st11" width="6.992" height="7.039"/>
</g>
<g>
	
		<rect x="376.361" y="512.741" transform="matrix(0.9038 -0.4281 0.4281 0.9038 -184.429 212.2909)" class="st11" width="6.992" height="7.039"/>
</g>
<g>
	
		<rect x="370.837" y="501.077" transform="matrix(0.9038 -0.4281 0.4281 0.9038 -179.9681 208.8036)" class="st11" width="6.992" height="7.039"/>
</g>
<g>
	
		<rect x="365.312" y="489.414" transform="matrix(0.9038 -0.4281 0.4281 0.9038 -175.5072 205.3163)" class="st11" width="6.992" height="7.039"/>
</g>
<g>
	
		<rect x="359.788" y="477.751" transform="matrix(0.9038 -0.4281 0.4281 0.9038 -171.0464 201.8289)" class="st11" width="6.992" height="7.039"/>
</g>
<g>
	
		<rect x="354.264" y="466.087" transform="matrix(0.9038 -0.4281 0.4281 0.9038 -166.5855 198.3416)" class="st11" width="6.992" height="7.039"/>
</g>
<g>
	
		<rect x="392.799" y="453.712" transform="matrix(0.9038 -0.4281 0.4281 0.9038 -152.413 238.4266)" class="st4" width="122.367" height="8.844"/>
</g>
<g>
	
		<rect x="407.942" y="485.684" transform="matrix(0.9038 -0.4281 0.4281 0.9038 -164.6414 247.9862)" class="st4" width="122.367" height="8.844"/>
</g>
<g>
	
		<rect x="423.086" y="517.656" transform="matrix(0.9038 -0.4281 0.4281 0.9038 -176.8698 257.5458)" class="st4" width="122.367" height="8.844"/>
</g>
<g>
	
		<rect x="438.229" y="549.628" transform="matrix(0.9038 -0.4281 0.4281 0.9038 -189.0982 267.1055)" class="st4" width="122.367" height="8.844"/>
</g>
<g>
	<path class="st2" d="M599.501,407.327c-2.158-5.775-6.389-10.633-11.995-13.197c-6.849-3.133-11.231-1.057-13.147,6.227
		c-1.568,5.962-0.49,12.313,2.611,17.641l44.882,77.109l8.874-4.203L599.501,407.327z"/>
</g>
<g>
	<path class="st2" d="M584.558,423.058l-25.498,32.855c-4.19,5.399-4.987,12.695-2.062,18.872l0.94,1.985l35.15-35.702
		L584.558,423.058z"/>
</g>
<g>
	<path class="st2" d="M656.091,427.85c-2.925-6.176-9.076-10.182-15.907-10.36l-41.575-1.087l8.531,18.01l49.892-4.578
		L656.091,427.85z"/>
</g>
<g>
	<path class="st2" d="M621.503,481.466L607.1,493.58c-2.767,2.327-3.618,6.228-2.07,9.496l21.815-10.333L621.503,481.466z"/>
</g>
<g>
	<path class="st2" d="M638.892,478.521l-18.498,3.47l5.341,11.277l21.815-10.333C646.003,479.668,642.446,477.855,638.892,478.521z"
		/>
</g>
<g>
	<path class="st7" d="M267.606,508.442v51.664c0,1.767,1.131,3.398,2.84,3.85c8.95,2.366,15.807,15.744,15.807,31.892
		s-6.856,29.526-15.807,31.892c-1.708,0.452-2.84,2.083-2.84,3.85v51.664h411.386v-174.81H267.606z"/>
</g>
<g>
	<rect x="362.198" y="676.213" class="st11" width="6.992" height="7.039"/>
</g>
<g>
	<rect x="362.198" y="663.308" class="st11" width="6.992" height="7.039"/>
</g>
<g>
	<rect x="362.198" y="650.402" class="st11" width="6.992" height="7.039"/>
</g>
<g>
	<rect x="362.198" y="637.497" class="st11" width="6.992" height="7.039"/>
</g>
<g>
	<rect x="362.198" y="624.591" class="st11" width="6.992" height="7.039"/>
</g>
<g>
	<rect x="362.198" y="611.686" class="st11" width="6.992" height="7.039"/>
</g>
<g>
	<rect x="362.198" y="598.781" class="st11" width="6.992" height="7.039"/>
</g>
<g>
	<rect x="362.198" y="585.875" class="st11" width="6.992" height="7.039"/>
</g>
<g>
	<rect x="362.198" y="572.97" class="st11" width="6.992" height="7.039"/>
</g>
<g>
	<rect x="362.198" y="560.064" class="st11" width="6.992" height="7.039"/>
</g>
<g>
	<rect x="362.198" y="547.159" class="st11" width="6.992" height="7.039"/>
</g>
<g>
	<rect x="362.198" y="534.253" class="st11" width="6.992" height="7.039"/>
</g>
<g>
	<rect x="362.198" y="521.348" class="st11" width="6.992" height="7.039"/>
</g>
<g>
	<rect x="362.198" y="508.442" class="st11" width="6.992" height="7.039"/>
</g>
<g>
	<rect x="396.383" y="538.36" class="st4" width="122.367" height="8.844"/>
</g>
<g>
	<rect x="396.383" y="573.737" class="st4" width="122.367" height="8.844"/>
</g>
<g>
	<rect x="396.383" y="609.114" class="st4" width="122.367" height="8.844"/>
</g>
<g>
	<rect x="396.383" y="644.491" class="st4" width="122.367" height="8.844"/>
</g>
<g>
	<path class="st2" d="M605.636,542.095c-4.849-5.763-9.698-5.763-14.547,0c-3.969,4.717-5.714,10.918-5.192,17.061l7.555,88.899
		h9.819l7.555-88.899C611.349,553.014,609.605,546.812,605.636,542.095z"/>
</g>
<g>
	<path class="st2" d="M553.481,585.755c-6.098,3.086-9.941,9.339-9.941,16.173v2.197l47.049-17.219v-19.928L553.481,585.755z"/>
</g>
<g>
	<path class="st2" d="M643.244,585.755l-37.108-18.779v19.928l47.049,17.219v-2.197
		C653.185,595.094,649.342,588.841,643.244,585.755z"/>
</g>
<g>
	<path class="st2" d="M580.773,640.36c-3.497,0.919-5.935,4.08-5.935,7.696h24.138v-12.478L580.773,640.36z"/>
</g>
<g>
	<path class="st2" d="M615.952,640.36l-18.203-4.782v12.478h24.138C621.887,644.44,619.449,641.278,615.952,640.36z"/>
</g>
<g>
	<rect x="267.606" y="676.213" class="st3" width="411.386" height="7.039"/>
</g>
<g>
	<rect x="671.118" y="508.442" class="st3" width="7.875" height="174.81"/>
</g>
<g>
	<polygon class="st3" points="267.606,508.442 678.992,508.442 714.226,490.301 	"/>
</g>
<g>
	<polygon class="st3" points="647.703,307.148 267.606,508.442 639.397,332.316 655.959,367.282 674.813,348.428 	"/>
</g>
<g>
	<polygon class="st3" points="558.289,217.734 681.898,341.343 655.959,367.282 662.536,381.17 711.785,338.067 	"/>
</g>
<g>
	<polygon class="st3" points="732.605,492.477 639.397,332.316 714.226,490.301 675.924,508.442 678.992,508.442 678.992,516.272 	
		"/>
</g>
</svg>
