<?xml version="1.0" encoding="utf-8"?>
<!-- Generator: Adobe Illustrator 22.0.0, SVG Export Plug-In . SVG Version: 6.00 Build 0)  -->
<svg version="1.1" baseProfile="basic" id="Layer_1"
	 xmlns="http://www.w3.org/2000/svg" xmlns:xlink="http://www.w3.org/1999/xlink" x="0px" y="0px" viewBox="0 0 1000 1000"
	 xml:space="preserve">
<style type="text/css">
	.st0{fill:#382B73;}
	.st1{fill:#473080;}
	.st2{fill:#FFFFFF;}
	.st3{fill:#E6E7E8;}
	.st4{fill:#FDDD3A;}
	.st5{fill:#E7AD27;}
	.st6{fill:#FFC633;}
	.st7{fill:#EE5A9C;}
	.st8{fill:#1CADE3;}
	.st9{fill:#177BBF;}
	.st10{fill:#D0D2D3;}
	.st11{fill:#A62973;}
	.st12{fill:#106EA0;}
	.st13{fill:#FFE36C;}
	.st14{fill:#2DBAA4;}
	.st15{fill:#00A48B;}
</style>
<g>
	<circle class="st0" cx="500" cy="500" r="398"/>
</g>
<g>
	<circle class="st1" cx="499.969" cy="500" r="344.33"/>
</g>
<g>
	<path class="st0" d="M773.692,576.271c-0.432-4.257-1.181-8.419-2.222-12.465c-1.633-6.345-4.002-12.39-6.98-18.066l6.214-3.057
		c-15.217-28.993-45.594-48.781-80.61-48.781c-21.546,0-41.339,7.493-56.927,20.009l-8.837-8.837
		c2.487-2.116,5.065-4.102,7.724-5.957c0.804-0.561,1.616-1.109,2.435-1.646c1.212-0.794,2.435-1.569,3.677-2.31
		c15.47-9.223,33.204-14.236,51.403-14.378c0.91-0.007,1.821-0.002,2.733,0.015c1.824,0.035,3.652,0.119,5.482,0.252l19.361,1.413
		c2.541,0.185,4.92-0.242,7.035-1.134c0.302-0.127,0.599-0.264,0.89-0.41c0.582-0.292,1.142-0.62,1.676-0.98
		c0.267-0.18,0.528-0.369,0.782-0.565c3.814-2.943,6.146-7.626,5.987-12.585c-0.053-1.653-0.383-3.336-1.026-4.997
		c-0.129-0.332-0.27-0.663-0.424-0.993v0c-0.67-1.433-1.372-2.849-2.064-4.27l0,0c-0.001-0.002-0.002-0.005-0.003-0.007
		c-2.097-4.308-4.294-8.562-6.587-12.759c-0.042-0.076-0.084-0.153-0.126-0.229c-3.833-7.001-7.933-13.843-12.292-20.51
		c-0.009-0.013-0.018-0.027-0.026-0.041c-6.271-9.586-13.054-18.826-20.359-27.647c-4.95-5.978-10.13-11.77-15.529-17.363
		c-5.4-5.593-11.019-10.987-16.849-16.167l-50.011-51.116l-2.536,11.707c-0.55,2.539-0.803,5.105-0.771,7.653
		c0.034,2.72,0.403,5.415,1.074,8.035c0.367,1.434,0.829,2.842,1.38,4.22c1.272,3.179,3.018,6.187,5.232,8.9l10.272,12.587
		l10.272,12.587c0.451,0.553,0.877,1.123,1.277,1.709s0.772,1.187,1.119,1.802c0.593,1.053,1.09,2.153,1.521,3.277
		c0.132,0.344,0.259,0.69,0.375,1.04c0.838,2.512,1.29,5.154,1.29,7.841c0,12.461-9.253,22.984-21.612,24.578l-4.586,0.591
		l-2.586,0.333c0,0-0.001,0-0.001,0l-7.739,0.998c0,0-1.32-1.881-3.424-4.875c-2.122-3.02-4.435-5.856-6.911-8.505l0,0c0,0,0,0,0,0
		c-0.347-0.372-0.703-0.732-1.057-1.096c-0.249-0.256-0.495-0.515-0.747-0.767c-0.345-0.346-0.698-0.684-1.049-1.022
		c-0.269-0.259-0.537-0.519-0.809-0.774c-0.352-0.33-0.708-0.653-1.065-0.976c-0.28-0.253-0.562-0.505-0.845-0.754
		c-0.359-0.315-0.72-0.626-1.084-0.934c-0.29-0.246-0.583-0.488-0.876-0.729c-0.367-0.301-0.734-0.601-1.106-0.896
		c-0.298-0.235-0.599-0.465-0.9-0.696c-0.376-0.289-0.751-0.579-1.133-0.861c-0.3-0.221-0.604-0.435-0.906-0.652
		c-1.411-1.012-2.853-1.976-4.323-2.891c-0.333-0.207-0.665-0.418-1.002-0.62c-0.386-0.232-0.776-0.455-1.166-0.68
		c-0.35-0.202-0.699-0.405-1.052-0.602c-0.387-0.216-0.777-0.425-1.167-0.635c-0.363-0.195-0.727-0.388-1.093-0.576
		c-0.388-0.2-0.778-0.397-1.17-0.591c-0.375-0.186-0.753-0.368-1.131-0.547c-0.389-0.185-0.779-0.369-1.172-0.548
		c-0.392-0.178-0.787-0.35-1.181-0.522c-0.384-0.167-0.766-0.336-1.152-0.497c-0.428-0.178-0.861-0.348-1.292-0.519
		c-0.359-0.142-0.716-0.289-1.077-0.426c-0.764-0.29-1.532-0.569-2.306-0.834c-0.306-0.105-0.615-0.201-0.922-0.302
		c-0.505-0.167-1.01-0.335-1.519-0.491c-0.359-0.111-0.721-0.213-1.082-0.318c-0.461-0.135-0.923-0.27-1.387-0.396
		c-0.375-0.103-0.752-0.198-1.129-0.295c-0.457-0.117-0.915-0.232-1.374-0.342c-0.378-0.09-0.757-0.176-1.137-0.26
		c-0.467-0.104-0.935-0.203-1.404-0.298c-0.374-0.076-0.747-0.151-1.122-0.222c-0.487-0.092-0.976-0.176-1.465-0.258
		c-0.359-0.061-0.718-0.123-1.078-0.179c-0.545-0.084-1.091-0.158-1.638-0.23c-0.306-0.041-0.61-0.087-0.917-0.124
		c-0.846-0.102-1.694-0.193-2.545-0.268c-0.153-0.013-0.306-0.021-0.459-0.033c-0.711-0.059-1.424-0.111-2.138-0.15
		c-0.311-0.017-0.623-0.026-0.935-0.04c-0.557-0.024-1.115-0.046-1.674-0.059c-0.299-0.007-0.598-0.009-0.897-0.012
		c-0.007-0.049,0.002-0.1-0.009-0.148c0-0.001-0.001-0.002-0.001-0.003c-0.045-0.201-0.128-0.39-0.239-0.57
		c-0.021-0.034-0.053-0.064-0.076-0.097c-0.104-0.15-0.225-0.293-0.373-0.428c-0.022-0.02-0.049-0.038-0.072-0.057
		c-0.169-0.146-0.364-0.283-0.583-0.411c-0.009-0.005-0.02-0.01-0.029-0.016c-0.24-0.138-0.51-0.264-0.805-0.379l0,0h0
		c-3.145-1.23-9.279-1.208-16.078,0.295c-7.409,1.638-13.363,4.536-15.252,7.161c-0.016,0.022-0.033,0.044-0.048,0.065
		c-0.075,0.108-0.146,0.215-0.207,0.322c-0.075,0.129-0.137,0.257-0.191,0.384c-0.028,0.069-0.053,0.137-0.075,0.205
		c-0.051,0.154-0.089,0.307-0.106,0.457c-0.004,0.033-0.003,0.066-0.005,0.098c-0.008,0.115-0.004,0.228,0.009,0.34
		c-1.963,0.912-3.885,1.906-5.761,2.983c-0.677,0.389-1.348,0.788-2.013,1.198c-5.906,3.638-11.328,8.085-16.074,13.273
		c0,0,0.035,0,0.041,0.051c0.03,0.256-0.664,1.805-10.082,11.179c-0.754,0.75-1.563,1.55-2.432,2.404
		c-0.194,0.19-0.434,0.369-0.706,0.539c-6.164,1.82-52.576-3.775-115.761-19.65l0,0c-2.268-0.57-4.556-1.152-6.866-1.749
		c-1.314-0.339-2.54-0.786-3.693-1.312c-8.071-3.681-12.582-11.222-18.972-12.688c-41.146-9.437-37.609-10.694-46.668-3.333
		c-0.208,0.169-0.416,0.347-0.622,0.528c0,0-0.001,0.001-0.001,0.001c-2.751,2.414-5.32,5.865-6.75,9.82
		c-0.003,0.008-0.006,0.015-0.009,0.022c-0.071,0.198-0.138,0.397-0.203,0.597c-0.013,0.039-0.027,0.078-0.04,0.117
		c-0.057,0.177-0.109,0.357-0.161,0.536c-0.019,0.063-0.039,0.126-0.056,0.189c-0.046,0.165-0.088,0.331-0.13,0.497
		c-0.02,0.079-0.042,0.157-0.06,0.236c-0.038,0.157-0.071,0.316-0.105,0.474c-0.019,0.089-0.04,0.178-0.057,0.268
		c-0.03,0.15-0.055,0.301-0.082,0.452c-0.017,0.099-0.036,0.198-0.052,0.298c-0.023,0.145-0.042,0.291-0.061,0.437
		c-0.014,0.106-0.03,0.213-0.042,0.32c-0.016,0.141-0.028,0.283-0.041,0.426c-0.01,0.113-0.022,0.226-0.03,0.339
		c-0.01,0.137-0.016,0.275-0.022,0.413c-0.006,0.119-0.012,0.237-0.016,0.356c-0.004,0.135-0.004,0.271-0.004,0.407
		c0,0.122-0.001,0.245,0,0.368c0.002,0.132,0.008,0.265,0.014,0.397c0.002,0.054,0.003,0.108,0.006,0.163
		c-0.721-0.123-1.435-0.244-2.135-0.364c-2.411-0.411-4.702-0.805-6.861-1.177c-13.493-2.327-21.812-3.836-21.812-3.836
		c3.521,10.783,8.568,20.823,14.874,29.885l-0.813,11.214l-0.252,3.486c-0.021,0.289-0.028,0.576-0.022,0.861
		c0.027,1.228,0.308,2.404,0.788,3.48c0.146,0.328,0.311,0.645,0.494,0.952c0.109,0.182,0.223,0.36,0.344,0.534
		c0.246,0.354,0.509,0.694,0.802,1.009c0.37,0.398,0.775,0.763,1.213,1.09c1.094,0.818,2.387,1.399,3.813,1.657l21.646,3.917
		c11.824,8.346,25.292,14.503,39.819,17.924l29.539,6.958c19.079,4.494,36.463,12.78,51.44,23.939l-18.901,18.901
		c-14.337-11.238-32.385-17.956-52.014-17.956c-3.874,0-7.679,0.284-11.414,0.79l-54.427-25.994
		c-0.448-0.214-0.912-0.336-1.378-0.418l0,0c0,0-0.001,0-0.002,0c-1.079-0.189-2.164-0.038-3.133,0.406
		c-0.095,0.043-0.191,0.083-0.284,0.132c-0.155,0.082-0.302,0.174-0.448,0.271c-0.131,0.086-0.256,0.178-0.38,0.276
		c-0.115,0.092-0.228,0.184-0.335,0.286c-0.146,0.137-0.28,0.288-0.411,0.444c-0.075,0.09-0.155,0.172-0.224,0.267
		c-0.194,0.264-0.37,0.544-0.517,0.85c0,0,0,0.001,0,0.001l-2.622,5.49l-15.002-7.165c-0.935-0.446-2.054-0.051-2.5,0.884
		l-3.173,6.643l-3.184,6.667c-0.056,0.117-0.098,0.236-0.128,0.357c-0.211,0.846,0.195,1.752,1.012,2.143l15.002,7.165v0h0
		l-2.622,5.49c-0.635,1.329-0.671,2.789-0.216,4.076c0.455,1.287,1.401,2.4,2.73,3.035l24.794,11.842
		c-2.078,2.023-4.058,4.146-5.919,6.373c-3.084,3.689-5.847,7.651-8.273,11.835c-1.755,3.027-3.348,6.161-4.723,9.411
		c-0.534,1.262-1.038,2.54-1.511,3.833c-0.947,2.585-1.771,5.23-2.464,7.927c-1.041,4.046-1.79,8.208-2.222,12.465
		c-0.288,2.837-0.436,5.717-0.436,8.63s0.147,5.793,0.436,8.63c0.432,4.256,1.181,8.419,2.222,12.465
		c0.694,2.697,1.518,5.342,2.464,7.928c0.473,1.293,0.978,2.571,1.511,3.833c1.263,2.986,2.712,5.871,4.296,8.669
		c3.106,5.484,6.789,10.598,10.999,15.23c1.816,1.999,3.728,3.91,5.726,5.726s4.085,3.539,6.251,5.159
		c2.167,1.62,4.414,3.139,6.734,4.549c2.321,1.41,4.714,2.711,7.175,3.897c4.92,2.371,10.106,4.279,15.5,5.666
		c2.697,0.694,5.446,1.258,8.241,1.685c4.191,0.64,8.484,0.973,12.855,0.973c5.827,0,11.517-0.591,17.011-1.715
		c6.869-1.406,13.433-3.645,19.584-6.609c1.23-0.593,2.444-1.214,3.64-1.864c26.313-14.294,44.175-42.172,44.175-74.222
		c0-1.602-0.054-3.191-0.142-4.771l7.627,3.643v27.916h169.333l1.867-34.49c0.319-5.89,1.167-11.698,2.476-17.376
		c0.934-4.05,2.114-8.028,3.528-11.918c0.869-2.391,1.803-4.757,2.848-7.075c0.641-1.422,1.314-2.83,2.02-4.221
		c1.411-2.783,2.951-5.503,4.615-8.15s3.452-5.222,5.361-7.715c0.095-0.124,0.198-0.242,0.294-0.366l8.587,8.587
		c-12.042,15.431-19.219,34.844-19.219,55.935h6.214c0,2.914,0.147,5.793,0.436,8.63c0.432,4.256,1.181,8.419,2.222,12.465
		c0.694,2.697,1.518,5.342,2.465,7.928c0.473,1.293,0.977,2.571,1.511,3.833c1.602,3.787,3.472,7.433,5.587,10.914
		c1.41,2.321,2.929,4.568,4.549,6.734c1.62,2.167,3.342,4.253,5.159,6.252c3.633,3.997,7.645,7.645,11.978,10.885
		c2.167,1.62,4.414,3.139,6.734,4.549c12.762,7.755,27.745,12.22,43.77,12.22c5.827,0,11.517-0.591,17.011-1.715
		c6.869-1.406,13.433-3.645,19.584-6.609c1.23-0.593,2.443-1.214,3.639-1.864c10.764-5.848,20.115-13.969,27.406-23.719
		c1.62-2.167,3.139-4.414,4.549-6.734c4.23-6.961,7.481-14.583,9.563-22.674c1.041-4.045,1.789-8.208,2.222-12.465
		c0.288-2.838,0.436-5.717,0.436-8.63S773.98,579.108,773.692,576.271z M245.836,491.83l0.041-0.085l0.052-0.108L245.836,491.83z
		 M352.805,624.223c-0.409,0.284-0.822,0.561-1.24,0.833c-0.784,0.51-1.584,0.997-2.399,1.461
		c-3.445,1.964-7.154,3.513-11.065,4.579c-0.392,0.107-0.784,0.21-1.18,0.307c-3.665,0.898-7.491,1.384-11.433,1.384
		c-12.397,0-23.694-4.711-32.198-12.44c-0.567-0.515-1.122-1.044-1.663-1.585c-1.011-1.011-1.972-2.071-2.889-3.168
		c-0.557-0.667-1.102-1.345-1.623-2.042c-0.639-0.855-1.24-1.739-1.822-2.636c-0.521-0.803-1.018-1.622-1.491-2.457
		c-0.333-0.589-0.654-1.186-0.963-1.79c-0.365-0.713-0.712-1.436-1.041-2.169c-0.269-0.599-0.527-1.204-0.772-1.816
		c-2.202-5.5-3.425-11.496-3.425-17.782c0-6.378,1.257-12.459,3.521-18.025c0.174-0.428,0.355-0.853,0.541-1.275
		c1.156-2.621,2.529-5.125,4.116-7.474c0.62-0.917,1.281-1.803,1.961-2.673c0.737-0.943,1.497-1.866,2.301-2.75
		c1.031-1.134,2.115-2.218,3.249-3.249c3.156-2.868,6.704-5.309,10.542-7.26l31.858,15.215c-3.178-1.18-6.614-1.827-10.203-1.827
		c-16.192,0-29.318,13.126-29.318,29.318c0,16.192,13.126,29.318,29.318,29.318s29.318-13.126,29.318-29.318
		c0-4.084-0.837-7.971-2.345-11.504l5.4-5.4l14.461,6.906c0.685,3.225,1.053,6.567,1.053,9.997
		C373.375,601.191,365.234,615.573,352.805,624.223z M412.388,513.459c-1.284-1.301-2.596-2.575-3.932-3.826
		c-0.016-0.015-0.032-0.029-0.048-0.043C409.76,510.855,411.089,512.143,412.388,513.459z M405.124,506.619
		c-0.431-0.379-0.869-0.75-1.304-1.123C404.256,505.87,404.693,506.241,405.124,506.619z M401.344,503.422
		c-0.403-0.33-0.805-0.66-1.212-0.986C400.54,502.761,400.941,503.093,401.344,503.422z M436.907,547.952
		c-0.398,0.082-0.792,0.173-1.183,0.273c-3.125,0.804-6.008,2.21-8.519,4.087c-0.627,0.469-1.232,0.968-1.811,1.494
		c-2.167,1.97-3.973,4.328-5.323,6.958c-0.174,0.339-0.34,0.682-0.498,1.03c-0.314,0.689-0.596,1.396-0.846,2.118l-13.397-6.398
		c-3.003-8.757-7.399-16.862-12.935-24.052l19.998-19.998c9.988,10.123,18.399,21.73,24.913,34.416
		C437.174,547.906,437.039,547.925,436.907,547.952z M612.566,516.884c-0.18,0.213-0.366,0.422-0.544,0.636
		c0.251-0.302,0.505-0.602,0.76-0.902C612.708,516.706,612.64,516.797,612.566,516.884z M621.768,507.33
		c0.354-0.322,0.705-0.649,1.063-0.966c0.494-0.437,0.995-0.862,1.496-1.289C623.462,505.811,622.611,506.564,621.768,507.33z
		 M737.542,587.365c-0.083,1.633-0.247,3.243-0.49,4.828c-0.363,2.378-0.901,4.698-1.601,6.947
		c-2.332,7.497-6.457,14.205-11.873,19.621c-1.625,1.625-3.366,3.133-5.209,4.512c-7.99,5.975-17.907,9.513-28.651,9.513
		c-10.744,0-20.662-3.538-28.651-9.513c-1.844-1.379-3.585-2.887-5.209-4.512c-5.416-5.416-9.541-12.124-11.873-19.621
		c-0.7-2.249-1.238-4.569-1.601-6.947c-0.242-1.585-0.406-3.196-0.489-4.828c-0.042-0.816-0.062-1.638-0.062-2.464
		c0-5.785,1.026-11.331,2.906-16.465c0.537-1.467,1.144-2.9,1.816-4.296c0.336-0.698,0.689-1.386,1.058-2.065
		c0.444-0.818,0.919-1.615,1.408-2.404l13.726,13.725c-1.509,3.532-2.345,7.42-2.345,11.504c0,16.192,13.126,29.318,29.319,29.318
		c16.192,0,29.318-13.126,29.318-29.318c0-1.386-0.103-2.748-0.29-4.083h4.373c0-16.192-13.126-29.318-29.318-29.318v4.373
		c-1.335-0.186-2.697-0.289-4.083-0.289c-4.36,0-8.494,0.959-12.212,2.666l-8.005-8.005l8.037-11.661
		c3.89-1.02,7.971-1.568,12.181-1.568c4.959,0,9.741,0.754,14.24,2.153c1.5,0.466,2.967,1.004,4.4,1.61
		c7.161,3.029,13.432,7.751,18.312,13.663c1.952,2.365,3.681,4.921,5.155,7.635c0.368,0.679,0.721,1.367,1.057,2.065
		c0.673,1.396,1.279,2.829,1.816,4.296c1.88,5.134,2.906,10.68,2.906,16.465C737.604,585.727,737.583,586.549,737.542,587.365z"/>
</g>
<g>
	<path class="st7" d="M441.834,527.456c-13.503,0-24.45,10.947-24.45,24.45v39.783h49.333v-64.234H441.834z"/>
</g>
<g>
	<path class="st11" d="M441.834,527.456c-13.503,0-24.45,10.947-24.45,24.45v39.783h10v-39.783c0-13.503,10.947-24.45,24.45-24.45
		H441.834z"/>
</g>
<g>
	<path class="st2" d="M259.938,382.306c-5.518-1.526-11.053,2.378-11.467,8.088l-1.944,26.831c-0.335,4.624,2.87,8.757,7.433,9.583
		l40.876,7.397L259.938,382.306z"/>
</g>
<g>
	<path class="st10" d="M289.987,426.994l-36.027-6.52c-3.594-0.65-6.338-3.356-7.18-6.735l-0.252,3.486
		c-0.335,4.624,2.87,8.757,7.433,9.582l40.876,7.397L289.987,426.994z"/>
</g>
<g>
	<path class="st9" d="M732.063,440.799L732.063,440.799c-17.621-37.677-42.746-71.362-73.835-98.994l-50.011-51.116l-2.536,11.707
		c-2.2,10.155,0.346,20.758,6.915,28.808l20.545,25.174c3.611,4.424,5.583,9.959,5.583,15.669c0,12.461-9.253,22.984-21.612,24.578
		l-14.912,1.923c0,0-1.32-1.881-3.424-4.875c-17.302-24.622-47.139-37.226-76.986-32.44l-0.948,0.152
		c-16.79,2.692-32.175,10.985-43.652,23.531c0,0,1.436-0.023-12.473,13.633c-13.909,13.656-232-25.909-232-25.909l0,0
		c12.42,38.031,43.765,66.837,82.707,76.009l29.539,6.958c63.138,14.871,107.754,71.217,107.754,136.082v0h134l1.867-34.49
		c1.372-25.348,12.154-49.272,30.235-67.09l0,0c20.909-20.605,49.686-31.195,78.963-29.059l19.361,1.413
		C728.76,463.311,736.998,451.349,732.063,440.799z"/>
</g>
<g>
	<path class="st2" d="M689.718,480.491c-46.619,0-84.41,37.792-84.41,84.41c0,46.618,37.792,84.41,84.41,84.41
		c46.618,0,84.41-37.792,84.41-84.41C774.128,518.282,736.336,480.491,689.718,480.491z M689.718,612.787
		c-26.447,0-47.887-21.439-47.887-47.886c0-26.447,21.44-47.886,47.887-47.886c26.447,0,47.886,21.439,47.886,47.886
		C737.604,591.348,716.165,612.787,689.718,612.787z"/>
</g>
<g>
	<path class="st10" d="M689.718,510.689c-29.94,0-54.212,24.271-54.212,54.212s24.271,54.212,54.212,54.212
		c29.94,0,54.211-24.271,54.211-54.212S719.658,510.689,689.718,510.689z M689.718,612.787c-26.447,0-47.887-21.44-47.887-47.886
		c0-26.447,21.44-47.886,47.887-47.886c26.447,0,47.886,21.439,47.886,47.886C737.604,591.348,716.165,612.787,689.718,612.787z"/>
</g>
<g>
	<path class="st10" d="M689.718,480.491c-46.619,0-84.41,37.792-84.41,84.41s37.792,84.41,84.41,84.41
		c46.618,0,84.41-37.792,84.41-84.41S736.336,480.491,689.718,480.491z M689.718,639.462c-41.179,0-74.562-33.383-74.562-74.561
		c0-41.179,33.382-74.562,74.562-74.562c41.179,0,74.561,33.382,74.561,74.562C764.279,606.08,730.897,639.462,689.718,639.462z"/>
</g>
<g>
	
		<ellipse transform="matrix(0.9871 -0.1602 0.1602 0.9871 -81.5809 117.7746)" class="st4" cx="689.718" cy="564.901" rx="29.319" ry="29.318"/>
</g>
<g>
	<path class="st7" d="M693.801,531.499v14.659c8.096,0,14.659,6.563,14.659,14.659h14.659
		C723.119,544.625,709.993,531.499,693.801,531.499z"/>
</g>
<g>
	<path class="st11" d="M693.801,539.076v7.083c8.096,0,14.659,6.563,14.659,14.659h6.694
		C713.58,549.682,704.872,540.844,693.801,539.076z"/>
</g>
<g>
	<path class="st7" d="M624.33,485.073c-1.889,1.607-3.73,3.282-5.51,5.036l0,0c-3.278,3.23-6.308,6.667-9.093,10.27l72.207,72.207
		l14.955-14.955L624.33,485.073z"/>
</g>
<g>
	<path class="st11" d="M616.175,492.824c-2.277,2.422-4.429,4.943-6.449,7.555l72.207,72.207l6.995-6.995L616.175,492.824z"/>
</g>
<g>
	<path class="st8" d="M690.094,473.901c-50.258,0-91,40.742-91,91h24.516c0-35.898,29.102-65,65-65
		c25.011,0,46.709,14.135,57.578,34.844l24.516-12.062C755.487,493.689,725.109,473.901,690.094,473.901z"/>
</g>
<g>
	<path class="st9" d="M735.158,505.901l-37.183-12.141l-42.257,6.18l-16.56,13.55l21.241,22.093l6.925-2.182l17.574-25.5
		c0,0,18.682-1,34.137,7c15.455,8,27.152,19.844,27.152,19.844L735.158,505.901z"/>
</g>
<g>
	<path class="st7" d="M689.718,552.871c-6.644,0-12.03,5.386-12.03,12.03c0,6.644,5.386,12.029,12.03,12.029
		c6.644,0,12.029-5.386,12.029-12.029C701.747,558.257,696.361,552.871,689.718,552.871z"/>
</g>
<g>
	<path class="st11" d="M689.718,560.082c-2.662,0-4.819,2.157-4.819,4.819c0,2.661,2.157,4.819,4.819,4.819
		c2.661,0,4.819-2.157,4.819-4.819C694.537,562.239,692.379,560.082,689.718,560.082z"/>
</g>
<g>
	<path class="st9" d="M688.929,485.073c-42.749,0-75.945,35.291-81.425,79.828h16.106c0-35.898,29.102-65,65-65
		c25.011,0,46.709,14.135,57.578,34.844l15.369-7.562C746.503,502.387,718.439,485.073,688.929,485.073z"/>
</g>
<g>
	<path class="st2" d="M325.489,480.491c-46.618,0-84.41,37.792-84.41,84.41c0,46.618,37.792,84.41,84.41,84.41
		s84.41-37.792,84.41-84.41C409.899,518.282,372.107,480.491,325.489,480.491z M325.489,612.787
		c-26.447,0-47.886-21.439-47.886-47.886c0-26.447,21.439-47.886,47.886-47.886s47.886,21.439,47.886,47.886
		C373.375,591.348,351.936,612.787,325.489,612.787z"/>
</g>
<g>
	<circle class="st4" cx="325.489" cy="564.901" r="29.318"/>
</g>
<g>
	<path class="st10" d="M325.489,510.689c-29.94,0-54.212,24.271-54.212,54.212s24.271,54.212,54.212,54.212
		s54.212-24.271,54.212-54.212S355.429,510.689,325.489,510.689z M325.489,612.787c-26.447,0-47.886-21.44-47.886-47.886
		c0-26.447,21.439-47.886,47.886-47.886s47.886,21.439,47.886,47.886C373.375,591.348,351.936,612.787,325.489,612.787z"/>
</g>
<g>
	<path class="st10" d="M325.489,480.491c-46.618,0-84.41,37.792-84.41,84.41s37.792,84.41,84.41,84.41s84.41-37.792,84.41-84.41
		S372.107,480.491,325.489,480.491z M325.489,639.462c-41.179,0-74.561-33.383-74.561-74.561c0-41.179,33.382-74.562,74.561-74.562
		s74.561,33.382,74.561,74.562C400.05,606.08,366.668,639.462,325.489,639.462z"/>
</g>
<g>
	<path class="st7" d="M396.404,479.546l-78.086,78.085l14.955,14.955l79.121-79.121
		C407.438,488.443,402.095,483.787,396.404,479.546z"/>
</g>
<g>
	<path class="st11" d="M404.357,485.946l-78.397,79.327l7.313,7.313l79.121-79.121C409.82,490.856,407.135,488.351,404.357,485.946z
		"/>
</g>
<g>
	<path class="st7" d="M325.489,552.871c-6.644,0-12.03,5.386-12.03,12.03c0,6.644,5.386,12.029,12.03,12.029
		s12.03-5.386,12.03-12.029C337.519,558.257,332.133,552.871,325.489,552.871z"/>
</g>
<g>
	<circle class="st11" cx="325.489" cy="564.901" r="5.328"/>
</g>
<g>
	<path class="st8" d="M732.063,440.799L732.063,440.799c-17.621-37.677-42.746-71.362-73.835-98.994l-50.011-51.116l-2.536,11.708
		c-2.2,10.155,0.346,20.758,6.915,28.808l20.545,25.174c3.611,4.424,5.583,9.959,5.583,15.669c0,12.461-9.253,22.984-21.612,24.578
		l-7.172,0.925c-5.146,0.664-10.208,1.864-15.104,3.58c-79.452,22.559-102.119,139.892-63.006,190.559l0,0h54.887l1.867-34.49
		c1.372-25.348,12.154-49.272,30.235-67.09l0,0c20.909-20.605,49.686-31.195,78.963-29.059l19.361,1.413
		C728.76,463.311,736.998,451.349,732.063,440.799z"/>
</g>
<g>
	<path class="st8" d="M521.791,361.233l-0.948,0.152c-16.79,2.692-32.174,10.985-43.652,23.531c0,0,1.436-0.023-12.473,13.633
		c-13.909,13.656-232-25.909-232-25.909s98,89.822,209.333,72.084c44.542-7.096,50.789-62.962,90.667-68.535
		c25.466-3.559,49.724,8.276,59.148,8.979C574.153,366.224,547.978,357.035,521.791,361.233z"/>
</g>
<g>
	<path class="st4" d="M687.931,372.187c-7.421,9.368-14.292,22.49-10.242,36.169c7.696,26,52.312,28.173,52.312,28.173
		C718.718,413.351,704.573,391.742,687.931,372.187z"/>
</g>
<g>
	<path class="st6" d="M720.696,418.909c-13.727-2.956-32.73-9.913-37.508-26.053c-1.24-4.19-1.452-8.327-0.941-12.321
		c-4.649,8.148-7.514,17.836-4.559,27.821c7.696,26,52.312,28.173,52.312,28.173C727.088,430.548,723.983,424.673,720.696,418.909z"
		/>
</g>
<g>
	<path class="st2" d="M395.604,520.218l-135.957-64.931c-2.658-1.27-5.842-0.144-7.111,2.514l-13.216,27.673
		c-1.27,2.658-0.144,5.842,2.514,7.111l135.957,64.931c2.658,1.269,5.842,0.144,7.111-2.514l13.216-27.673
		C399.388,524.671,398.262,521.487,395.604,520.218z"/>
</g>
<g>
	<path class="st2" d="M234.913,456.125c-0.935-0.446-2.054-0.051-2.5,0.884l-6.357,13.31c-0.446,0.935-0.051,2.054,0.884,2.5
		l15.002,7.165l7.973-16.694L234.913,456.125z"/>
</g>
<g>
	
		<rect x="397.667" y="531.45" transform="matrix(0.431 -0.9024 0.9024 0.431 -263.4203 679.3168)" class="st7" width="18.5" height="34.146"/>
</g>
<g>
	
		<rect x="400.962" y="536.675" transform="matrix(0.4309 -0.9024 0.9024 0.4309 -269.551 680.0591)" class="st11" width="6.92" height="34.146"/>
</g>
<g>
	<path class="st10" d="M229.809,462.461l-3.753,7.858c-0.446,0.935-0.051,2.054,0.884,2.5l15.002,7.165l4.561-9.55L229.809,462.461z
		"/>
</g>
<g>
	<path class="st10" d="M244.592,474.435l-5.272,11.039c-1.27,2.658-0.144,5.842,2.514,7.111l135.957,64.931
		c2.658,1.27,5.842,0.144,7.111-2.514l5.272-11.039L244.592,474.435z"/>
</g>
<g>
	<path class="st10" d="M396.796,521.027l-138.527-66.158c-2.3-0.404-4.677,0.722-5.733,2.932l-0.194,0.406l145.583,69.528
		l0.194-0.406C399.174,525.119,398.556,522.561,396.796,521.027z"/>
</g>
<g>
	<path class="st7" d="M464.619,398.774c0.062-0.07,0.101-0.144,0.099-0.225C464.718,398.549,464.681,398.635,464.619,398.774z
		 M341.384,377.689c-10.513-2.714-15.362-12.325-22.665-14c-41.146-9.437-37.609-10.694-46.668-3.333
		c-10.667,8.667-19.709,33.333,27.333,43.333c21.598,4.591,110.667,32,132.667,26c20.817-5.677,31.48-28.478,32.568-30.916
		C462.196,401.513,411.15,395.702,341.384,377.689z"/>
</g>
<g>
	<path class="st11" d="M439.217,418.588c-22,6-111.068-21.409-132.667-26c-32.591-6.928-38.26-20.895-35.122-31.704
		c-10.376,9.099-18.168,33.001,27.956,42.805c21.598,4.591,110.667,32,132.667,26c17.546-4.785,27.875-21.733,31.342-28.405
		C457.977,408.181,449.95,415.661,439.217,418.588z"/>
</g>
<g>
	<path class="st2" d="M623.855,436.011l-16.502-3.235c-3.753-0.736-7.392,1.71-8.128,5.463s1.71,7.392,5.464,8.128l16.502,3.235
		c3.753,0.736,7.392-1.71,8.128-5.464C630.054,440.386,627.608,436.747,623.855,436.011z"/>
</g>
<g>
	<path class="st10" d="M629.336,441.595c-1.483,2.346-4.296,3.667-7.183,3.101l-16.502-3.235c-2.887-0.566-4.994-2.852-5.481-5.584
		c-0.445,0.704-0.775,1.496-0.945,2.363v0c-0.736,3.753,1.71,7.392,5.464,8.128l16.502,3.235c3.753,0.736,7.392-1.71,8.128-5.464
		C629.488,443.273,629.482,442.415,629.336,441.595z"/>
</g>
<g>
	<path class="st2" d="M535.171,360.095c-0.664-3.003-8.837-3.749-18.257-1.667c-9.419,2.082-16.517,6.204-15.853,9.207
		c0.664,3.003,8.837,3.749,18.256,1.667C528.737,367.22,535.834,363.098,535.171,360.095z"/>
</g>
<g>
	<path class="st10" d="M535.171,360.095c-0.185-0.835-0.967-1.489-2.178-1.962c-2.334,2.441-7.906,5.006-14.705,6.509
		c-6.8,1.503-12.934,1.525-16.078,0.295c-0.899,0.94-1.333,1.863-1.148,2.698c0.664,3.003,8.837,3.749,18.257,1.667
		S535.834,363.098,535.171,360.095z"/>
</g>
<g>
	<circle class="st11" cx="700.801" cy="537.022" r="1.75"/>
</g>
<g>
	<circle class="st11" cx="712.571" cy="543.971" r="1.75"/>
</g>
<g>
	<circle class="st11" cx="718.217" cy="555.46" r="1.75"/>
</g>
<g>
	<circle class="st7" cx="703.06" cy="545.721" r="1.75"/>
</g>
<g>
	<circle class="st7" cx="709.904" cy="553.371" r="1.75"/>
</g>
<g>
	<path class="st11" d="M341.384,377.689c-10.513-2.714-15.362-12.325-22.665-14c-0.007-0.001-0.013-0.003-0.02-0.004
		c-4.527,4.224-10.787,11.309-6.982,15.338c5.667,6,19.779-2.802,33,0c1.117,0.237,2.303,0.365,3.532,0.415
		C345.982,378.868,343.694,378.286,341.384,377.689z"/>
</g>
</svg>
