<?xml version="1.0" encoding="utf-8"?>
<!-- Generator: Adobe Illustrator 22.0.0, SVG Export Plug-In . SVG Version: 6.00 Build 0)  -->
<svg version="1.1" baseProfile="basic" id="Layer_1"
	 xmlns="http://www.w3.org/2000/svg" xmlns:xlink="http://www.w3.org/1999/xlink" x="0px" y="0px" viewBox="0 0 1000 1000"
	 xml:space="preserve">
<style type="text/css">
	.st0{fill:#382B73;}
	.st1{fill:#473080;}
	.st2{fill:#FFFFFF;}
	.st3{fill:#E6E7E8;}
	.st4{fill:#FDDD3A;}
	.st5{fill:#E7AD27;}
	.st6{fill:#FFC633;}
	.st7{fill:#EE5A9C;}
	.st8{fill:#1CADE3;}
	.st9{fill:#177BBF;}
	.st10{fill:#D0D2D3;}
	.st11{fill:#A62973;}
	.st12{fill:#106EA0;}
	.st13{fill:#FFE36C;}
	.st14{fill:#2DBAA4;}
	.st15{fill:#00A48B;}
</style>
<g>
	<circle class="st0" cx="500" cy="500" r="398"/>
</g>
<g>
	<circle class="st1" cx="499.969" cy="500" r="344.33"/>
</g>
<g>
	<ellipse class="st0" cx="485.6" cy="713.22" rx="205.4" ry="19.22"/>
</g>
<g>
	<path class="st2" d="M391.692,490.991v203.375c0,12.154,9.853,22.006,22.006,22.006c12.153,0,22.006-9.853,22.006-22.006V490.991
		H391.692z"/>
</g>
<g>
	<path class="st3" d="M391.692,490.991v203.375c0,8.144,4.427,15.249,11.003,19.055c6.575-3.806,11.002-10.911,11.002-19.055
		V490.991H391.692z"/>
</g>
<g>
	<path class="st2" d="M334.902,490.991v203.375c0,12.154,9.853,22.006,22.006,22.006l0,0c12.154,0,22.006-9.853,22.006-22.006
		V490.991H334.902z"/>
</g>
<g>
	<path class="st3" d="M356.951,490.991v203.375c0,8.153-4.437,15.265-11.024,19.067c3.233,1.866,6.981,2.939,10.982,2.939
		c12.154,0,22.006-9.853,22.006-22.006V490.991H356.951z"/>
</g>
<g>
	<rect x="334.902" y="392.673" class="st2" width="100.802" height="171.967"/>
</g>
<g>
	<path class="st2" d="M324.254,392.673c-16.466,0-29.814,13.348-29.814,29.815v95.833h0.224c1.185,7.048,7.299,12.423,14.684,12.423
		s13.499-5.375,14.684-12.423h0.224v-84.83h18.22v-40.818H324.254z"/>
</g>
<g>
	<path class="st3" d="M308.874,444.489v86.233c0.158,0.005,0.313,0.021,0.473,0.021c7.385,0,13.499-5.375,14.684-12.423h0.223
		v-84.83h10.648v-18.817C334.902,414.674,308.874,411.269,308.874,444.489z"/>
</g>
<g>
	<path class="st2" d="M551.489,392.673H421.334v40.162h130.155c10.357,0,18.753-8.396,18.753-18.754v-2.655
		C570.243,401.07,561.847,392.673,551.489,392.673z"/>
</g>
<g>
	<path class="st3" d="M570.243,412.754c0-2.578-0.439-5.034-1.211-7.3c-2.99,6.164-8.722,10.34-15.311,10.34H450.747l-14.21,17.041
		l116.192,0C562.401,432.835,570.243,423.845,570.243,412.754L570.243,412.754z"/>
</g>
<g>
	
		<ellipse transform="matrix(0.3827 -0.9239 0.9239 0.3827 -71.9898 563.0339)" class="st2" cx="385.325" cy="335.387" rx="40.604" ry="40.604"/>
</g>
<g>
	<path class="st3" d="M425.419,328.967c-3.078,19.373-19.854,34.184-40.094,34.184c-20.239,0-37.015-14.81-40.094-34.184
		c-0.333,2.092-0.51,4.235-0.51,6.421c0,22.425,18.179,40.604,40.604,40.604c22.425,0,40.604-18.179,40.604-40.604
		C425.93,333.202,425.751,331.059,425.419,328.967z"/>
</g>
<g>
	<path class="st7" d="M401.447,322.546c-5.858,0-10.607,3.929-10.607,3.929s4.749,3.929,10.607,3.929s10.607-3.929,10.607-3.929
		S407.305,322.546,401.447,322.546z"/>
</g>
<g>
	<path class="st7" d="M368.278,322.546c-5.858,0-10.607,3.929-10.607,3.929s4.75,3.929,10.607,3.929
		c5.858,0,10.608-3.929,10.608-3.929S374.137,322.546,368.278,322.546z"/>
</g>
<g>
	<rect x="334.902" y="509.291" class="st3" width="100.802" height="18.259"/>
</g>
<g>
	<rect x="374.624" y="509.291" class="st7" width="20.036" height="17.679"/>
</g>
<g>
	<rect x="344.721" y="436.609" class="st7" width="29.902" height="4.714"/>
</g>
<g>
	<path class="st7" d="M413.021,389.082L413.021,389.082c-2.525-3.177-7.375-3.096-9.793,0.164l-13.981,18.856
		c-1.578,2.128-1.622,5.025-0.11,7.201l0.45,0.648c2.458,3.536,7.688,3.534,10.143-0.004l13.531-19.503
		C414.812,394.205,414.715,391.214,413.021,389.082z"/>
</g>
<g>
	<path class="st7" d="M379.131,408.102l-13.981-18.856c-2.417-3.26-7.268-3.341-9.793-0.164c-1.694,2.132-1.792,5.123-0.239,7.361
		l13.531,19.503c2.455,3.538,7.686,3.54,10.143,0.004l0.45-0.648C380.753,413.127,380.709,410.229,379.131,408.102z"/>
</g>
<g>
	<path class="st8" d="M530.667,294.783h-15v418.638c0,4.105,15,4.105,15,0V294.783z"/>
</g>
<g>
	<path class="st9" d="M523.167,713.421V294.783h-7.5l0,418.638c0,2.766,6.807,3.666,11.25,2.704
		C524.767,715.659,523.167,714.76,523.167,713.421z"/>
</g>
<g>
	<rect x="581.3" y="292.315" class="st2" width="138.5" height="110.9"/>
</g>
<g>
	<rect x="581.3" y="292.315" class="st4" width="46.167" height="36.967"/>
</g>
<g>
	<rect x="627.467" y="292.315" class="st2" width="46.167" height="36.967"/>
</g>
<g>
	<rect x="581.3" y="329.282" class="st2" width="46.167" height="36.967"/>
</g>
<g>
	<rect x="627.467" y="329.282" class="st4" width="46.167" height="36.967"/>
</g>
<g>
	<rect x="581.3" y="366.249" class="st4" width="46.167" height="36.967"/>
</g>
<g>
	<rect x="673.633" y="292.315" class="st4" width="46.167" height="36.967"/>
</g>
<g>
	<rect x="673.633" y="329.282" class="st2" width="46.167" height="36.967"/>
</g>
<g>
	<rect x="673.633" y="366.249" class="st4" width="46.167" height="36.967"/>
</g>
<g>
	<rect x="627.467" y="366.249" class="st2" width="46.167" height="36.967"/>
</g>
<g>
	<rect x="512.552" y="304.526" class="st2" width="46.167" height="36.967"/>
</g>
<g>
	<rect x="581.3" y="292.315" class="st3" width="36.13" height="110.9"/>
</g>
<g>
	<rect x="512.552" y="267.559" class="st2" width="92.333" height="110.9"/>
</g>
<g>
	<rect x="512.552" y="267.559" class="st4" width="46.167" height="36.967"/>
</g>
<g>
	<rect x="558.719" y="267.559" class="st2" width="46.167" height="36.967"/>
</g>
<g>
	<rect x="558.719" y="304.526" class="st4" width="46.167" height="36.967"/>
</g>
<g>
	<rect x="512.552" y="341.493" class="st4" width="46.167" height="36.967"/>
</g>
<g>
	<rect x="558.719" y="341.493" class="st2" width="46.167" height="36.967"/>
</g>
<g>
	<rect x="512.552" y="267.559" class="st3" width="9.033" height="110.9"/>
</g>
</svg>
