<?xml version="1.0" encoding="utf-8"?>
<!-- Generator: Adobe Illustrator 22.0.0, SVG Export Plug-In . SVG Version: 6.00 Build 0)  -->
<svg version="1.1" baseProfile="basic" id="Layer_1"
	 xmlns="http://www.w3.org/2000/svg" xmlns:xlink="http://www.w3.org/1999/xlink" x="0px" y="0px" viewBox="0 0 1000 1000"
	 xml:space="preserve">
<style type="text/css">
	.st0{fill:#382B73;}
	.st1{fill:#473080;}
	.st2{fill:#FFFFFF;}
	.st3{fill:#E6E7E8;}
	.st4{fill:#FDDD3A;}
	.st5{fill:#E7AD27;}
	.st6{fill:#FFC633;}
	.st7{fill:#EE5A9C;}
	.st8{fill:#1CADE3;}
	.st9{fill:#177BBF;}
	.st10{fill:#D0D2D3;}
	.st11{fill:#A62973;}
	.st12{fill:#106EA0;}
	.st13{fill:#FFE36C;}
	.st14{fill:#2DBAA4;}
	.st15{fill:#00A48B;}
</style>
<g>
	<circle class="st0" cx="500" cy="500" r="398"/>
</g>
<g>
	<circle class="st1" cx="499.969" cy="500" r="344.33"/>
</g>
<g>
	<polygon class="st4" points="254,482.032 316,603 700,603 800,482.032 	"/>
</g>
<g>
	<path class="st2" d="M326.836,500h-21.811c-2.437,0-4.413,1.976-4.413,4.413v14.097c0,2.437,1.976,4.413,4.413,4.413h21.811
		c2.437,0,4.413-1.976,4.413-4.413v-14.097C331.249,501.976,329.273,500,326.836,500z"/>
</g>
<g>
	<path class="st2" d="M372.247,500h-21.811c-2.437,0-4.413,1.976-4.413,4.413v14.097c0,2.437,1.976,4.413,4.413,4.413h21.811
		c2.437,0,4.413-1.976,4.413-4.413v-14.097C376.659,501.976,374.684,500,372.247,500z"/>
</g>
<g>
	<path class="st2" d="M417.657,500h-21.811c-2.437,0-4.413,1.976-4.413,4.413v14.097c0,2.437,1.976,4.413,4.413,4.413h21.811
		c2.437,0,4.413-1.976,4.413-4.413v-14.097C422.07,501.976,420.095,500,417.657,500z"/>
</g>
<g>
	<path class="st2" d="M463.068,500h-21.811c-2.437,0-4.413,1.976-4.413,4.413v14.097c0,2.437,1.976,4.413,4.413,4.413h21.811
		c2.437,0,4.413-1.976,4.413-4.413v-14.097C467.481,501.976,465.505,500,463.068,500z"/>
</g>
<g>
	<path class="st2" d="M508.479,500h-21.811c-2.437,0-4.413,1.976-4.413,4.413v14.097c0,2.437,1.976,4.413,4.413,4.413h21.811
		c2.437,0,4.413-1.976,4.413-4.413v-14.097C512.892,501.976,510.916,500,508.479,500z"/>
</g>
<g>
	<path class="st2" d="M553.89,500h-21.811c-2.437,0-4.413,1.976-4.413,4.413v14.097c0,2.437,1.976,4.413,4.413,4.413h21.811
		c2.437,0,4.413-1.976,4.413-4.413v-14.097C558.303,501.976,556.327,500,553.89,500z"/>
</g>
<g>
	<path class="st2" d="M599.301,500H577.49c-2.437,0-4.413,1.976-4.413,4.413v14.097c0,2.437,1.976,4.413,4.413,4.413h21.811
		c2.437,0,4.413-1.976,4.413-4.413v-14.097C603.713,501.976,601.738,500,599.301,500z"/>
</g>
<g>
	<path class="st2" d="M644.712,500h-21.811c-2.437,0-4.413,1.976-4.413,4.413v14.097c0,2.437,1.976,4.413,4.413,4.413h21.811
		c2.437,0,4.413-1.976,4.413-4.413v-14.097C649.124,501.976,647.149,500,644.712,500z"/>
</g>
<g>
	<path class="st2" d="M690.123,500h-21.811c-2.437,0-4.413,1.976-4.413,4.413v14.097c0,2.437,1.976,4.413,4.413,4.413h21.811
		c2.437,0,4.413-1.976,4.413-4.413v-14.097C694.535,501.976,692.56,500,690.123,500z"/>
</g>
<g>
	<path class="st2" d="M735.533,500h-21.811c-2.437,0-4.413,1.976-4.413,4.413v14.097c0,2.437,1.976,4.413,4.413,4.413h21.811
		c2.437,0,4.413-1.976,4.413-4.413v-14.097C739.946,501.976,737.97,500,735.533,500z"/>
</g>
<g>
	<path class="st3" d="M326.836,500h-21.811c-2.437,0-4.413,1.976-4.413,4.413v4.078c0-2.437,1.976-4.413,4.413-4.413h21.811
		c2.437,0,4.413,1.976,4.413,4.413v-4.078C331.249,501.976,329.273,500,326.836,500z"/>
</g>
<g>
	<path class="st3" d="M372.247,500h-21.811c-2.437,0-4.413,1.976-4.413,4.413v4.078c0-2.437,1.976-4.413,4.413-4.413h21.811
		c2.437,0,4.413,1.976,4.413,4.413v-4.078C376.659,501.976,374.684,500,372.247,500z"/>
</g>
<g>
	<path class="st3" d="M417.658,500h-21.811c-2.437,0-4.413,1.976-4.413,4.413v4.078c0-2.437,1.976-4.413,4.413-4.413h21.811
		c2.437,0,4.413,1.976,4.413,4.413v-4.078C422.07,501.976,420.095,500,417.658,500z"/>
</g>
<g>
	<path class="st3" d="M463.069,500h-21.811c-2.437,0-4.413,1.976-4.413,4.413v4.078c0-2.437,1.976-4.413,4.413-4.413h21.811
		c2.437,0,4.413,1.976,4.413,4.413v-4.078C467.481,501.976,465.506,500,463.069,500z"/>
</g>
<g>
	<path class="st3" d="M508.479,500h-21.811c-2.437,0-4.413,1.976-4.413,4.413v4.078c0-2.437,1.976-4.413,4.413-4.413h21.811
		c2.437,0,4.413,1.976,4.413,4.413v-4.078C512.892,501.976,510.917,500,508.479,500z"/>
</g>
<g>
	<path class="st3" d="M553.89,500H532.08c-2.437,0-4.413,1.976-4.413,4.413v4.078c0-2.437,1.976-4.413,4.413-4.413h21.811
		c2.437,0,4.413,1.976,4.413,4.413v-4.078C558.303,501.976,556.327,500,553.89,500z"/>
</g>
<g>
	<path class="st3" d="M599.301,500h-21.811c-2.438,0-4.413,1.976-4.413,4.413v4.078c0-2.437,1.976-4.413,4.413-4.413h21.811
		c2.437,0,4.413,1.976,4.413,4.413v-4.078C603.714,501.976,601.738,500,599.301,500z"/>
</g>
<g>
	<path class="st3" d="M644.712,500h-21.811c-2.437,0-4.413,1.976-4.413,4.413v4.078c0-2.437,1.976-4.413,4.413-4.413h21.811
		c2.437,0,4.413,1.976,4.413,4.413v-4.078C649.125,501.976,647.149,500,644.712,500z"/>
</g>
<g>
	<path class="st3" d="M690.123,500h-21.811c-2.437,0-4.413,1.976-4.413,4.413v4.078c0-2.437,1.976-4.413,4.413-4.413h21.811
		c2.437,0,4.413,1.976,4.413,4.413v-4.078C694.535,501.976,692.56,500,690.123,500z"/>
</g>
<g>
	<path class="st3" d="M735.534,500h-21.811c-2.437,0-4.413,1.976-4.413,4.413v4.078c0-2.437,1.976-4.413,4.413-4.413h21.811
		c2.437,0,4.413,1.976,4.413,4.413v-4.078C739.946,501.976,737.971,500,735.534,500z"/>
</g>
<g>
	<path class="st3" d="M735.533,518.844h-21.811c-2.437,0-4.413-1.976-4.413-4.413v4.078c0,2.437,1.976,4.413,4.413,4.413h21.811
		c2.437,0,4.413-1.976,4.413-4.413v-4.078C739.946,516.868,737.971,518.844,735.533,518.844z"/>
</g>
<g>
	<path class="st3" d="M690.123,518.844h-21.811c-2.437,0-4.413-1.976-4.413-4.413v4.078c0,2.437,1.976,4.413,4.413,4.413h21.811
		c2.437,0,4.413-1.976,4.413-4.413v-4.078C694.535,516.868,692.56,518.844,690.123,518.844z"/>
</g>
<g>
	<path class="st3" d="M644.712,518.844h-21.811c-2.437,0-4.413-1.976-4.413-4.413v4.078c0,2.437,1.976,4.413,4.413,4.413h21.811
		c2.437,0,4.413-1.976,4.413-4.413v-4.078C649.125,516.868,647.149,518.844,644.712,518.844z"/>
</g>
<g>
	<path class="st3" d="M599.301,518.844H577.49c-2.437,0-4.413-1.976-4.413-4.413v4.078c0,2.437,1.976,4.413,4.413,4.413h21.811
		c2.438,0,4.413-1.976,4.413-4.413v-4.078C603.714,516.868,601.738,518.844,599.301,518.844z"/>
</g>
<g>
	<path class="st3" d="M553.89,518.844H532.08c-2.437,0-4.413-1.976-4.413-4.413v4.078c0,2.437,1.976,4.413,4.413,4.413h21.811
		c2.437,0,4.413-1.976,4.413-4.413v-4.078C558.303,516.868,556.327,518.844,553.89,518.844z"/>
</g>
<g>
	<path class="st3" d="M508.479,518.844h-21.811c-2.437,0-4.413-1.976-4.413-4.413v4.078c0,2.437,1.976,4.413,4.413,4.413h21.811
		c2.437,0,4.413-1.976,4.413-4.413v-4.078C512.892,516.868,510.917,518.844,508.479,518.844z"/>
</g>
<g>
	<path class="st3" d="M463.068,518.844h-21.811c-2.437,0-4.413-1.976-4.413-4.413v4.078c0,2.437,1.976,4.413,4.413,4.413h21.811
		c2.437,0,4.413-1.976,4.413-4.413v-4.078C467.481,516.868,465.506,518.844,463.068,518.844z"/>
</g>
<g>
	<path class="st3" d="M417.657,518.844h-21.811c-2.437,0-4.413-1.976-4.413-4.413v4.078c0,2.437,1.976,4.413,4.413,4.413h21.811
		c2.437,0,4.413-1.976,4.413-4.413v-4.078C422.07,516.868,420.095,518.844,417.657,518.844z"/>
</g>
<g>
	<path class="st3" d="M372.247,518.844h-21.811c-2.437,0-4.413-1.976-4.413-4.413v4.078c0,2.437,1.976,4.413,4.413,4.413h21.811
		c2.437,0,4.413-1.976,4.413-4.413v-4.078C376.659,516.868,374.684,518.844,372.247,518.844z"/>
</g>
<g>
	<path class="st3" d="M326.836,518.844h-21.811c-2.437,0-4.413-1.976-4.413-4.413v4.078c0,2.437,1.976,4.413,4.413,4.413h21.811
		c2.437,0,4.413-1.976,4.413-4.413v-4.078C331.249,516.868,329.273,518.844,326.836,518.844z"/>
</g>
<g>
	<rect x="278.015" y="527" class="st4" width="423.907" height="76"/>
</g>
<g>
	<polygon class="st6" points="278.015,546.333 278.015,603 701.923,603 701.923,600.674 746.844,546.333 	"/>
</g>
<g>
	<polygon class="st7" points="278.015,552.5 278.015,577.5 721.08,577.5 741.747,552.5 	"/>
</g>
<g>
	<path class="st2" d="M744.463,472.531c-44.272-44.103-104.16-69.188-166.65-69.188L298,403.667
		c-5.891,0-10.667,4.776-10.667,10.667L270,482.032h484L744.463,472.531z"/>
</g>
<g>
	<polygon class="st2" points="341.434,334.333 278.015,334.333 331.249,403.667 422.07,403.667 	"/>
</g>
<g>
	<polygon class="st4" points="361.593,351.667 291.324,351.667 304.632,369 381.752,369 	"/>
</g>
<g>
	<path class="st8" d="M685.01,442.849c-9.667,0-393.833,0-393.833,0l-4.583,15.042h426.75
		C713.344,457.892,694.677,442.849,685.01,442.849z"/>
</g>
<g>
	<path class="st8" d="M624,419.183c-18,0-325.75,0-325.75,0l-4.333,15.042h375.75C669.667,434.225,642,419.183,624,419.183z"/>
</g>
<g>
	<path class="st2" d="M565.768,382.333h-234.52v24h257.147v-1.373C588.396,392.464,578.265,382.333,565.768,382.333z"/>
</g>
<g>
	<path class="st3" d="M584.684,394.625h-260.34v9.042h265.465v-3.917C589.809,396.919,587.514,394.625,584.684,394.625z"/>
</g>
<g>
	<path class="st3" d="M744.463,472.531c-0.067-0.067-0.137-0.131-0.204-0.198H272.483L270,482.032h484L744.463,472.531z"/>
</g>
<g>
	<polygon class="st9" points="318.963,419.183 314.5,434.225 317.662,434.225 322.125,419.183 	"/>
</g>
<g>
	<polygon class="st9" points="400.588,419.183 396.125,434.225 413,434.225 417.463,419.183 	"/>
</g>
<g>
	<polygon class="st9" points="593.963,419.183 589.5,434.225 606.375,434.225 610.838,419.183 	"/>
</g>
<g>
	<polygon class="st9" points="480.699,419.183 476.236,434.225 480.024,434.225 484.487,419.183 	"/>
</g>
<g>
	<polygon class="st9" points="490.699,419.183 486.236,434.225 490.024,434.225 494.487,419.183 	"/>
</g>
<g>
	<polygon class="st9" points="500.699,419.183 496.236,434.225 500.024,434.225 504.487,419.183 	"/>
</g>
<g>
	<polygon class="st9" points="510.699,419.183 506.236,434.225 510.024,434.225 514.487,419.183 	"/>
</g>
<g>
	<polygon class="st9" points="433.588,419.183 429.125,434.225 446,434.225 450.463,419.183 	"/>
</g>
<g>
	<polygon class="st9" points="326.588,419.183 322.125,434.225 381,434.225 385.463,419.183 	"/>
</g>
<g>
	<polygon class="st9" points="398.957,442.849 394.494,457.892 397.656,457.892 402.119,442.849 	"/>
</g>
<g>
	<polygon class="st9" points="480.582,442.849 476.119,457.892 492.994,457.892 497.457,442.849 	"/>
</g>
<g>
	<polygon class="st9" points="560.693,442.849 556.229,457.892 560.018,457.892 564.481,442.849 	"/>
</g>
<g>
	<polygon class="st9" points="570.693,442.849 566.229,457.892 570.018,457.892 574.481,442.849 	"/>
</g>
<g>
	<polygon class="st9" points="580.693,442.849 576.229,457.892 580.018,457.892 584.481,442.849 	"/>
</g>
<g>
	<polygon class="st9" points="590.693,442.849 586.229,457.892 590.018,457.892 594.481,442.849 	"/>
</g>
<g>
	<polygon class="st9" points="513.582,442.849 509.119,457.892 525.994,457.892 530.457,442.849 	"/>
</g>
<g>
	<polygon class="st9" points="601.613,442.849 597.15,457.892 661.667,457.892 666.131,442.849 	"/>
</g>
<g>
	<polygon class="st9" points="406.582,442.849 402.119,457.892 460.994,457.892 465.457,442.849 	"/>
</g>
<g>
	<polygon class="st9" points="309.332,442.849 304.869,457.892 363.744,457.892 368.207,442.849 	"/>
</g>
<g>
	<polygon class="st9" points="527.838,419.183 523.375,434.225 582.25,434.225 586.713,419.183 	"/>
</g>
<g>
	<polygon class="st11" points="278.015,565 278.015,577.5 721.08,577.5 731.413,565 	"/>
</g>
<g>
	<path class="st8" d="M512.532,565c-0.077,0-0.147,0.006-0.223,0.007c0.076,0,0.147,0.006,0.223,0.007V565z"/>
	<path class="st8" d="M247.357,590.51c2.662,6.19,5.544,12.262,8.637,18.207c11.263-7.912,17.019-21.218,36.361-21.218
		c27.521,0,27.521,26.951,55.042,26.951c27.522,0,27.522-26.951,55.043-26.951c27.523,0,27.523,26.951,55.046,26.951
		c27.369,0,27.534-26.639,54.599-26.937V587.5v-22.486c-27.066,0.297-27.23,26.937-54.599,26.937
		c-27.523,0-27.523-26.951-55.046-26.951c-27.522,0-27.522,26.951-55.043,26.951c-27.521,0-27.521-26.951-55.042-26.951
		C268.672,565,265.355,584.944,247.357,590.51z"/>
	<path class="st3" d="M347.396,645.015c27.522,0,27.522-26.95,55.043-26.95c27.523,0,27.523,26.95,55.046,26.95
		c27.369,0,27.534-26.639,54.599-26.937v-0.014v-30.551c-27.066,0.297-27.23,26.937-54.599,26.937
		c-27.523,0-27.523-26.951-55.046-26.951c-27.522,0-27.522,26.951-55.043,26.951c-27.521,0-27.521-26.951-55.042-26.951
		c-19.342,0-25.098,13.305-36.361,21.218c3.587,6.896,7.457,13.62,11.597,20.158c6.072-5.741,12.83-10.811,24.764-10.811
		C319.875,618.065,319.875,645.015,347.396,645.015z"/>
	<path class="st12" d="M347.396,673.015c27.522,0,27.522-26.95,55.043-26.95c27.523,0,27.523,26.95,55.046,26.95
		c27.369,0,27.534-26.639,54.599-26.937v-0.014v-27.986c-27.066,0.297-27.23,26.937-54.599,26.937
		c-27.523,0-27.523-26.95-55.046-26.95c-27.522,0-27.522,26.95-55.043,26.95c-27.521,0-27.521-26.95-55.042-26.95
		c-11.934,0-18.692,5.07-24.764,10.811c4.157,6.565,8.585,12.941,13.268,19.114c3.262-1.199,7.009-1.925,11.496-1.925
		C319.875,646.065,319.875,673.015,347.396,673.015z"/>
	<path class="st3" d="M402.44,678.704c27.523,0,27.523,26.951,55.046,26.951c27.369,0,27.534-26.64,54.599-26.937v-0.014v-32.625
		c-27.066,0.297-27.23,26.937-54.599,26.937c-27.523,0-27.523-26.95-55.046-26.95c-27.522,0-27.522,26.95-55.043,26.95
		c-27.521,0-27.521-26.95-55.042-26.95c-4.487,0-8.234,0.725-11.496,1.925c16.371,21.584,35.857,40.67,57.79,56.599
		c2.591,0.674,5.469,1.066,8.748,1.066C374.918,705.654,374.918,678.704,402.44,678.704z"/>
	<path class="st8" d="M457.486,733.154c27.369,0,27.534-26.64,54.599-26.937v-0.014v-27.486
		c-27.066,0.297-27.23,26.937-54.599,26.937c-27.523,0-27.523-26.951-55.046-26.951c-27.522,0-27.522,26.951-55.043,26.951
		c-3.279,0-6.157-0.392-8.748-1.066c9.974,7.243,20.448,13.838,31.37,19.711c8.944-7.856,15.455-18.096,32.421-18.096
		C429.963,706.204,429.963,733.154,457.486,733.154z"/>
	<path class="st8" d="M567.125,614.451c27.521,0,27.521-26.951,55.042-26.951c27.521,0,27.521,26.951,55.042,26.951
		c27.52,0,27.52-26.951,55.039-26.951c8.407,0,14.241,2.521,19.081,6.014c2.428-5.466,4.694-11.019,6.769-16.666
		c-6.366-6.153-13.2-11.849-25.85-11.849c-27.52,0-27.52,26.951-55.039,26.951c-27.521,0-27.521-26.951-55.042-26.951
		c-27.521,0-27.521,26.951-55.042,26.951c-27.366,0-27.531-26.639-54.593-26.937c-0.076-0.001-0.147-0.006-0.223-0.007
		c-0.076,0-0.146-0.007-0.223-0.007v0.014V587.5C539.605,587.5,539.605,614.451,567.125,614.451z"/>
	<path class="st3" d="M677.208,614.451c-27.521,0-27.521-26.951-55.042-26.951c-27.521,0-27.521,26.951-55.042,26.951
		c-27.52,0-27.52-26.951-55.04-26.951v0.014v30.551c27.52,0,27.52,26.95,55.04,26.95c27.521,0,27.521-26.95,55.042-26.95
		c27.521,0,27.521,26.95,55.042,26.95c27.52,0,27.52-26.95,55.039-26.95c2.308,0,4.408,0.204,6.361,0.551
		c4.655-8.114,8.896-16.495,12.72-25.102c-4.84-3.494-10.674-6.014-19.081-6.014C704.728,587.5,704.728,614.451,677.208,614.451z"/>
	<path class="st12" d="M677.208,645.015c-27.521,0-27.521-26.95-55.042-26.95c-27.521,0-27.521,26.95-55.042,26.95
		c-27.52,0-27.52-26.95-55.04-26.95v0.014v27.986c27.52,0,27.52,26.95,55.04,26.95c27.521,0,27.521-26.95,55.042-26.95
		c27.521,0,27.521,26.95,55.042,26.95c21.901,0,26.384-17.057,41.167-24.027c7.385-9.645,14.158-19.782,20.233-30.372
		c-1.953-0.347-4.053-0.551-6.361-0.551C704.728,618.065,704.728,645.015,677.208,645.015z"/>
	<path class="st3" d="M622.167,646.065c-27.521,0-27.521,26.95-55.042,26.95c-27.52,0-27.52-26.95-55.04-26.95v0.014v32.625
		c27.52,0,27.52,26.951,55.04,26.951c27.521,0,27.521-26.951,55.042-26.951c22.07,0,26.452,17.322,41.512,24.188
		c20.651-15.33,39.068-33.491,54.697-53.903c-14.783,6.97-19.267,24.027-41.167,24.027
		C649.688,673.015,649.688,646.065,622.167,646.065z"/>
	<path class="st8" d="M567.125,705.654c-27.52,0-27.52-26.951-55.04-26.951v0.014v27.486c0.077,0,0.147,0.006,0.223,0.007
		c0.076,0,0.146-0.007,0.223-0.007v0.014c27.062,0.297,27.227,26.937,54.593,26.937c27.521,0,27.521-26.951,55.042-26.951
		c10.834,0,17.399,4.181,23.061,9.246c6.325-3.944,12.483-8.129,18.451-12.558c-15.06-6.865-19.442-24.188-41.512-24.188
		C594.646,678.704,594.646,705.654,567.125,705.654z"/>
	<path class="st3" d="M457.486,733.154c-27.523,0-27.523-26.951-55.046-26.951c-16.967,0-23.477,10.239-32.421,18.096
		c38.704,20.809,82.961,32.625,129.981,32.625c4.051,0,8.077-0.106,12.085-0.279v-50.427
		C485.02,706.515,484.855,733.154,457.486,733.154z"/>
	<path class="st3" d="M512.532,706.204c-0.077,0-0.147,0.006-0.223,0.007c0.076,0,0.147,0.006,0.223,0.007V706.204z"/>
	<path class="st3" d="M567.125,733.154c-27.366,0-27.531-26.639-54.593-26.937c-0.076-0.001-0.147-0.006-0.223-0.007
		c-0.076,0-0.146-0.007-0.223-0.007v0.014v50.427c48.751-2.11,94.202-16.915,133.143-41.195c-5.662-5.065-12.227-9.246-23.061-9.246
		C594.646,706.204,594.646,733.154,567.125,733.154z"/>
</g>
<g>
	<polygon class="st6" points="278.015,532 278.015,537 754.56,537 758.693,532 	"/>
</g>
<g>
	<polygon class="st13" points="257.571,489 259.963,493.667 790.382,493.667 794.24,489 	"/>
</g>
<g>
	<path class="st3" d="M685.01,442.849c-9.667,0-393.833,0-393.833,0l-1.033,3.392h405.527
		C691.803,444.273,687.981,442.849,685.01,442.849z"/>
</g>
<g>
	<path class="st3" d="M624,419.183c-18,0-325.75,0-325.75,0l-0.977,3.392h344.979C635.977,420.606,629.532,419.183,624,419.183z"/>
</g>
<g>
	<polygon class="st3" points="290.144,334.333 278.015,334.333 324.344,394.625 356.333,394.625 	"/>
</g>
</svg>
