<?xml version="1.0" encoding="utf-8"?>
<!-- Generator: Adobe Illustrator 22.0.0, SVG Export Plug-In . SVG Version: 6.00 Build 0)  -->
<svg version="1.1" baseProfile="basic" id="Layer_1"
	 xmlns="http://www.w3.org/2000/svg" xmlns:xlink="http://www.w3.org/1999/xlink" x="0px" y="0px" viewBox="0 0 1000 1000"
	 xml:space="preserve">
<style type="text/css">
	.st0{fill:#382B73;}
	.st1{fill:#473080;}
	.st2{fill:#FFFFFF;}
	.st3{fill:#E6E7E8;}
	.st4{fill:#FDDD3A;}
	.st5{fill:#E7AD27;}
	.st6{fill:#FFC633;}
	.st7{fill:#EE5A9C;}
	.st8{fill:#1CADE3;}
	.st9{fill:#177BBF;}
	.st10{fill:#D0D2D3;}
	.st11{fill:#A62973;}
	.st12{fill:#106EA0;}
	.st13{fill:#FFE36C;}
	.st14{fill:#2DBAA4;}
	.st15{fill:#00A48B;}
</style>
<g>
	<circle class="st0" cx="500" cy="500" r="398"/>
</g>
<g>
	<circle class="st1" cx="499.969" cy="500" r="344.33"/>
</g>
<g>
	<path class="st0" d="M709.36,356.759c-0.005-0.381-0.012-0.76-0.024-1.138c-0.004-0.121-0.01-0.242-0.014-0.363
		c-0.015-0.382-0.033-0.762-0.055-1.141c-0.007-0.115-0.015-0.228-0.023-0.343c-0.025-0.384-0.054-0.767-0.087-1.147
		c-0.009-0.106-0.02-0.212-0.03-0.317c-0.036-0.385-0.075-0.77-0.12-1.151c-0.011-0.1-0.024-0.2-0.036-0.3
		c-0.047-0.386-0.097-0.77-0.152-1.152c-0.013-0.094-0.028-0.187-0.042-0.28c-0.058-0.387-0.119-0.771-0.186-1.154
		c-0.015-0.086-0.031-0.172-0.046-0.258c-0.069-0.388-0.142-0.774-0.22-1.157c-0.016-0.079-0.033-0.158-0.049-0.237
		c-0.081-0.389-0.166-0.775-0.255-1.159c-0.017-0.072-0.034-0.143-0.051-0.214c-0.093-0.389-0.189-0.777-0.291-1.161
		c-0.017-0.065-0.035-0.13-0.052-0.195c-0.104-0.389-0.213-0.776-0.326-1.16c-0.017-0.059-0.035-0.118-0.053-0.177
		c-0.116-0.388-0.236-0.773-0.362-1.156c-0.018-0.054-0.036-0.109-0.054-0.163c-0.128-0.385-0.26-0.769-0.397-1.148
		c-0.018-0.05-0.036-0.099-0.054-0.149c-0.14-0.383-0.283-0.764-0.432-1.142c-0.018-0.044-0.035-0.089-0.053-0.133
		c-0.152-0.381-0.308-0.76-0.469-1.135c-0.017-0.039-0.034-0.078-0.051-0.117c-0.164-0.38-0.333-0.756-0.507-1.13
		c-0.015-0.033-0.031-0.066-0.046-0.098c-0.177-0.378-0.358-0.752-0.544-1.123c-0.014-0.029-0.029-0.058-0.044-0.087
		c-0.189-0.374-0.382-0.744-0.581-1.111c-0.013-0.025-0.027-0.05-0.04-0.074c-0.201-0.369-0.406-0.735-0.616-1.097
		c-0.013-0.022-0.025-0.044-0.038-0.066c-0.213-0.365-0.43-0.727-0.653-1.084c-0.01-0.017-0.021-0.034-0.032-0.051
		c-0.225-0.361-0.456-0.718-0.691-1.072c-0.009-0.014-0.019-0.028-0.028-0.042c-0.237-0.355-0.478-0.706-0.725-1.053
		c-0.009-0.012-0.018-0.025-0.026-0.037c-0.248-0.349-0.502-0.693-0.76-1.034c-0.007-0.009-0.014-0.018-0.021-0.028
		c-0.26-0.342-0.525-0.681-0.794-1.015c-0.006-0.008-0.012-0.015-0.018-0.023c-0.271-0.336-0.547-0.667-0.828-0.994
		c-0.004-0.005-0.009-0.011-0.014-0.016c-0.283-0.329-0.571-0.653-0.863-0.973l-0.008-0.009c-0.294-0.321-0.592-0.637-0.896-0.949
		l-0.007-0.007c-0.303-0.312-0.612-0.619-0.925-0.922c-0.001-0.001-0.002-0.003-0.004-0.004l0,0
		c-19.84-19.172-58.372-19.313-96.435,18.75l-56.166,62.533l-131.641-14.922l8.677-8.677c5.555-5.555,5.555-14.561,0-20.116
		l-4.539-4.539l0,0l-1.416-1.416c0,0,0,0,0,0l-4.54-4.539c-5.555-5.555-14.561-5.555-20.116,0l-30.612,30.612
		c-0.771,0.77-1.423,1.612-1.979,2.497l-48.702-5.521c-4.77-0.541-9.525,1.134-12.904,4.544l-3.186,3.216l-4.731,4.775
		l-20.939,21.135c-0.775,0.782-1.447,1.615-2.018,2.486c-0.19,0.29-0.37,0.585-0.538,0.882c-0.262,0.465-0.49,0.94-0.7,1.421
		c-0.358,0.821-0.642,1.661-0.849,2.514c-0.293,1.208-0.442,2.437-0.444,3.662c0,0.649,0.039,1.296,0.117,1.938
		c0.118,0.963,0.323,1.913,0.613,2.839c0.193,0.617,0.424,1.222,0.691,1.812c1.738,3.833,5.02,7.014,9.573,8.442l101.55,31.852
		l86.094,27.004L359.325,609.165l-66.382-11.776c-3.993-0.708-8.08,0.588-10.935,3.469L264.5,618.531
		c-6.41,6.469-3.856,17.413,4.754,20.378l7.723,2.659l8.656,2.981l28.046,9.657l5.546,1.91l5.21,1.794
		c-1.184,7.03-0.415,14.043,2.341,20.168l-0.939,0.94c0,0-34.795,34.796-27.246,42.392c0.002,0.002,0.004,0.005,0.007,0.007
		c0,0,0,0,0,0.001c1.066,1.066,2.671,1.293,4.641,0.897c0.657-0.132,1.354-0.333,2.086-0.596c0.976-0.35,2.013-0.81,3.095-1.359
		c0.541-0.275,1.094-0.572,1.656-0.89c0.562-0.318,1.134-0.655,1.714-1.011c0.29-0.178,0.581-0.36,0.875-0.546
		c0.587-0.373,1.18-0.762,1.778-1.166c0.897-0.606,1.806-1.244,2.718-1.906c0.608-0.441,1.219-0.894,1.829-1.354
		c0.916-0.691,1.832-1.401,2.741-2.122c10.007-7.929,19.265-17.186,19.265-17.186l0.94-0.94c0.416,0.187,0.835,0.365,1.26,0.534
		c1.194,0.475,2.417,0.88,3.666,1.21c0.302,0.08,0.605,0.156,0.91,0.227c2.519,0.59,5.126,0.898,7.778,0.912
		c0.03,0,0.06,0.002,0.09,0.002c2.095,0.006,4.217-0.175,6.34-0.525l2.252,6.54l1.33,3.864l7.826,22.729l4.808,13.964l2.709,7.869
		c2.965,8.61,13.909,11.164,20.378,4.754l17.672-17.509c2.881-2.854,4.178-6.941,3.469-10.935l-11.718-66.057L524.012,559.05
		l27.138,86.522l31.852,101.55c1.428,4.553,4.609,7.835,8.442,9.573c0.59,0.267,1.195,0.498,1.812,0.691
		c0.925,0.29,1.876,0.495,2.839,0.613c0.642,0.078,1.289,0.118,1.938,0.117c1.225-0.001,2.454-0.15,3.662-0.444
		c0.853-0.207,1.693-0.491,2.514-0.849c0.481-0.209,0.956-0.437,1.421-0.7c0.298-0.168,0.592-0.348,0.883-0.538
		c0.87-0.572,1.704-1.243,2.486-2.018l23.877-23.656l2.033-2.014l3.216-3.186c3.41-3.379,5.085-8.134,4.544-12.904l-5.521-48.702
		c0.885-0.557,1.726-1.209,2.497-1.979l30.612-30.612c5.555-5.555,5.555-14.561,0-20.116l-4.54-4.54l-1.416-1.416c0,0,0,0-0.001,0
		l-4.539-4.539c-5.555-5.555-14.562-5.555-20.116,0l-8.677,8.677l-14.979-132.139l61.965-55.655c0.603-0.603,1.197-1.206,1.781-1.81
		c0.153-0.158,0.3-0.316,0.451-0.474c0.427-0.445,0.855-0.891,1.272-1.336c0.184-0.197,0.362-0.394,0.544-0.591
		c0.376-0.406,0.755-0.812,1.123-1.219c0.202-0.223,0.396-0.446,0.596-0.669c0.339-0.379,0.68-0.758,1.012-1.137
		c0.223-0.255,0.438-0.51,0.658-0.764c0.299-0.347,0.602-0.694,0.895-1.041c0.225-0.266,0.441-0.532,0.663-0.797
		c0.28-0.336,0.563-0.672,0.837-1.009c0.216-0.265,0.425-0.53,0.638-0.795c0.27-0.336,0.543-0.672,0.807-1.008
		c0.217-0.275,0.425-0.55,0.638-0.826c0.25-0.324,0.504-0.648,0.749-0.971c0.212-0.28,0.416-0.559,0.624-0.839
		c0.239-0.321,0.481-0.642,0.714-0.962c0.201-0.276,0.395-0.552,0.593-0.828c0.23-0.322,0.464-0.643,0.689-0.965
		c0.195-0.278,0.383-0.556,0.573-0.833c0.22-0.32,0.443-0.64,0.658-0.959c0.183-0.272,0.359-0.543,0.538-0.814
		c0.214-0.325,0.432-0.65,0.641-0.975c0.173-0.268,0.338-0.534,0.508-0.802c0.207-0.327,0.416-0.654,0.618-0.98
		c0.165-0.267,0.323-0.534,0.485-0.801c0.197-0.326,0.397-0.651,0.589-0.976c0.157-0.266,0.307-0.53,0.461-0.796
		c0.188-0.326,0.379-0.651,0.562-0.976c0.149-0.264,0.291-0.526,0.437-0.79c0.179-0.325,0.361-0.65,0.535-0.975
		c0.141-0.261,0.275-0.522,0.412-0.783c0.172-0.327,0.345-0.653,0.512-0.979c0.129-0.253,0.253-0.505,0.379-0.757
		c0.166-0.332,0.334-0.665,0.495-0.997c0.121-0.248,0.235-0.496,0.353-0.743c0.158-0.334,0.318-0.668,0.471-1.001
		c0.112-0.244,0.219-0.487,0.328-0.73c0.151-0.336,0.303-0.673,0.448-1.009c0.104-0.239,0.202-0.476,0.302-0.715
		c0.143-0.338,0.287-0.677,0.424-1.014c0.096-0.236,0.187-0.471,0.281-0.707c0.134-0.338,0.269-0.676,0.397-1.013
		c0.088-0.231,0.172-0.462,0.258-0.693c0.126-0.34,0.253-0.681,0.374-1.02c0.08-0.225,0.156-0.449,0.233-0.673
		c0.119-0.344,0.238-0.687,0.351-1.03c0.072-0.219,0.14-0.436,0.21-0.654c0.111-0.347,0.223-0.694,0.328-1.04
		c0.064-0.211,0.125-0.421,0.187-0.631c0.104-0.351,0.207-0.701,0.305-1.051c0.058-0.206,0.111-0.41,0.167-0.615
		c0.095-0.353,0.19-0.705,0.279-1.057c0.051-0.198,0.097-0.396,0.146-0.594c0.087-0.356,0.174-0.711,0.255-1.065
		c0.044-0.193,0.084-0.384,0.126-0.576c0.079-0.358,0.157-0.716,0.229-1.073c0.038-0.185,0.072-0.37,0.108-0.554
		c0.07-0.361,0.139-0.722,0.203-1.081c0.032-0.18,0.061-0.359,0.091-0.538c0.061-0.363,0.121-0.725,0.176-1.086
		c0.026-0.173,0.05-0.345,0.074-0.518c0.052-0.365,0.103-0.729,0.149-1.092c0.021-0.166,0.039-0.33,0.059-0.496
		c0.043-0.368,0.085-0.736,0.122-1.102c0.016-0.158,0.029-0.315,0.043-0.472c0.034-0.371,0.067-0.741,0.094-1.109
		c0.011-0.151,0.02-0.302,0.03-0.453c0.025-0.374,0.047-0.746,0.065-1.117c0.007-0.142,0.011-0.284,0.017-0.426
		c0.015-0.376,0.028-0.752,0.036-1.125c0.003-0.137,0.004-0.272,0.006-0.409c0.005-0.378,0.008-0.755,0.006-1.13
		C709.364,357.014,709.361,356.887,709.36,356.759z"/>
</g>
<g>
	<path class="st5" d="M670.254,590.398l-10.495-10.495c-5.555-5.555-14.562-5.555-20.116,0l-30.612,30.612
		c-5.555,5.555-5.555,14.561,0,20.116l10.495,10.495c5.555,5.555,14.561,5.555,20.116,0l30.612-30.612
		C675.809,604.959,675.809,595.953,670.254,590.398z"/>
</g>
<g>
	<path class="st13" d="M665.714,585.858l-1.416-1.416c-4.55-4.55-11.926-4.55-16.476,0l-34.252,34.252
		c-4.55,4.55-4.55,11.926,0,16.476l1.416,1.416c4.55,4.55,11.926,4.55,16.476,0l34.252-34.252
		C670.264,597.784,670.264,590.408,665.714,585.858z"/>
</g>
<g>
	<path class="st4" d="M642.667,691.807l-29.591-261.045l-93.777,93.26l63.704,203.1c3.515,11.207,17.651,14.712,25.995,6.445
		l29.125-28.857C641.533,701.332,643.207,696.577,642.667,691.807z"/>
</g>
<g>
	<path class="st6" d="M542.132,501.314l-22.834,22.708l63.704,203.1c3.515,11.207,17.651,14.712,25.995,6.445l4.472-4.431
		L542.132,501.314z"/>
</g>
<g>
	<polygon class="st6" points="602.167,505.333 549,546 553,560 603.854,521.366 	"/>
</g>
<g>
	<polygon class="st6" points="615.196,602.338 566.383,639.871 570.383,653.871 616.883,618.371 	"/>
</g>
<g>
	<polygon class="st13" points="600.638,443.131 594.446,449.289 630.132,712.628 634.907,707.897 	"/>
</g>
<g>
	<polygon class="st5" points="542.132,501.314 538.09,505.333 608.997,733.568 613.469,729.137 	"/>
</g>
<g>
	<path class="st5" d="M420.1,340.881l-10.495-10.495c-5.555-5.555-14.561-5.555-20.116,0l-30.612,30.612
		c-5.555,5.555-5.555,14.561,0,20.116l10.495,10.495c5.555,5.555,14.561,5.555,20.116,0l30.612-30.612
		C425.655,355.443,425.655,346.436,420.1,340.881z"/>
</g>
<g>
	<path class="st13" d="M415.561,336.342l-1.416-1.416c-4.55-4.55-11.926-4.55-16.476,0l-34.252,34.252
		c-4.55,4.55-4.55,11.926,0,16.476l1.416,1.416c4.55,4.55,11.926,4.55,16.476,0l34.252-34.252
		C420.11,348.268,420.11,340.891,415.561,336.342z"/>
</g>
<g>
	<path class="st4" d="M308.195,357.973c-4.77-0.541-9.525,1.134-12.904,4.544l-28.857,29.125c-8.267,8.344-4.762,22.48,6.445,25.995
		l203.1,63.704l93.26-93.777L308.195,357.973z"/>
</g>
<g>
	<path class="st6" d="M270.866,387.171l-4.431,4.472c-8.267,8.344-4.762,22.48,6.445,25.995l203.1,63.704l22.708-22.834
		L270.866,387.171z"/>
</g>
<g>
	<polygon class="st6" points="478.636,396.786 440.003,447.64 454.003,451.64 494.669,398.473 	"/>
</g>
<g>
	<polygon class="st6" points="381.632,383.756 346.132,430.256 360.132,434.256 397.665,385.444 	"/>
</g>
<g>
	<polygon class="st13" points="292.106,365.733 287.375,370.508 550.714,406.194 556.872,400.002 	"/>
</g>
<g>
	<polygon class="st5" points="270.866,387.171 266.435,391.643 494.669,462.55 498.688,458.508 	"/>
</g>
<g>
	<path class="st8" d="M599.23,322.065L335.15,616.081c-14.12,15.792-15.081,38.097-2.197,50.981
		c12.884,12.884,35.19,11.923,50.981-2.197l294.017-264.08C754.751,323.985,676.031,245.264,599.23,322.065z"/>
</g>
<g>
	<path class="st9" d="M695.665,303.314L332.953,667.062c12.884,12.884,35.189,11.923,50.981-2.197l294.017-264.08
		C716.688,362.048,715.856,322.826,695.665,303.314z"/>
</g>
<g>
	<path class="st6" d="M679.91,320.105c-7.487-7.487-18.496-10.284-30.998-7.875c-3.559,0.686-7.125,1.781-10.637,3.245
		l10.991,10.992c8.363-2.197,16.055-1.215,20.776,3.507c4.721,4.721,5.704,12.413,3.507,20.776l10.991,10.991
		c1.465-3.512,2.559-7.078,3.245-10.637C690.194,338.601,687.397,327.592,679.91,320.105z"/>
</g>
<g>
	<path class="st13" d="M679.91,320.105c-4.473-4.473-10.209-7.257-16.763-8.272l-3.712,13.608c4.221,0.356,7.902,1.828,10.606,4.532
		c2.87,2.87,4.35,6.841,4.583,11.39l13.679-3.731C687.393,330.757,684.557,324.752,679.91,320.105z"/>
</g>
<g>
	<path class="st6" d="M292.944,577.389c-3.993-0.708-8.08,0.588-10.935,3.469l-17.509,17.672
		c-6.409,6.469-3.856,17.413,4.754,20.378l83.318,28.689l50.346-50.701L292.944,577.389z"/>
</g>
<g>
	<path class="st6" d="M422.426,706.875l-19.509-109.974l-50.701,50.346l28.689,83.318c2.965,8.61,13.909,11.164,20.378,4.754
		l17.672-17.509C421.838,714.955,423.135,710.868,422.426,706.875z"/>
</g>
<g>
	<polygon class="st13" points="278.199,584.704 274.719,588.217 391.625,608.375 394.5,605.25 	"/>
</g>
<g>
	<polygon class="st13" points="394.594,605.339 391.082,608.82 411.62,725.078 414.713,722.014 	"/>
</g>
<g>
	<path class="st5" d="M361.892,623.687L361.892,623.687c-0.819,0.339-1.546,0.82-2.154,1.429l-33.902,33.902
		c0,0-34.82,34.819-27.239,42.4c7.58,7.58,42.4-27.239,42.4-27.239l33.902-33.902c0.608-0.608,1.09-1.335,1.428-2.154l0,0
		C413.032,601.418,398.597,586.983,361.892,623.687z"/>
</g>
<g>
	<path class="st4" d="M396.63,603.37l-98.04,98.04c0.002,0.002,0.004,0.005,0.007,0.008c7.58,7.58,42.4-27.239,42.4-27.239
		l33.902-33.902c0.608-0.608,1.09-1.335,1.428-2.154C394.693,619.758,400.254,606.968,396.63,603.37z"/>
</g>
<g>
	<polygon class="st4" points="307.952,593.947 276.976,621.568 290.947,626.379 322.986,596.54 	"/>
</g>
<g>
	<polygon class="st4" points="348.717,600.976 313.679,634.207 326.54,638.635 362.597,603.37 	"/>
</g>
<g>
	<polygon class="st4" points="403.013,676.925 373.389,708.732 378.197,722.696 405.605,691.959 	"/>
</g>
<g>
	<polygon class="st4" points="396.183,637.314 361.136,673.148 365.562,686.004 398.576,651.194 	"/>
</g>
</svg>
