<?xml version="1.0" encoding="utf-8"?>
<!-- Generator: Adobe Illustrator 22.0.0, SVG Export Plug-In . SVG Version: 6.00 Build 0)  -->
<svg version="1.1" baseProfile="basic" id="Layer_1"
	 xmlns="http://www.w3.org/2000/svg" xmlns:xlink="http://www.w3.org/1999/xlink" x="0px" y="0px" viewBox="0 0 1000 1000"
	 xml:space="preserve">
<style type="text/css">
	.st0{fill:#382B73;}
	.st1{fill:#473080;}
	.st2{fill:#FFFFFF;}
	.st3{fill:#E6E7E8;}
	.st4{fill:#FDDD3A;}
	.st5{fill:#E7AD27;}
	.st6{fill:#FFC633;}
	.st7{fill:#EE5A9C;}
	.st8{fill:#1CADE3;}
	.st9{fill:#177BBF;}
	.st10{fill:#D0D2D3;}
	.st11{fill:#A62973;}
	.st12{fill:#106EA0;}
	.st13{fill:#FFE36C;}
	.st14{fill:#2DBAA4;}
	.st15{fill:#00A48B;}
</style>
<g>
	<circle class="st0" cx="500" cy="500" r="398"/>
</g>
<g>
	<circle class="st1" cx="499.969" cy="500" r="344.33"/>
</g>
<g>
	<ellipse class="st0" cx="500" cy="768.803" rx="133.171" ry="21"/>
</g>
<g>
	<path class="st2" d="M435.264,482.513v258.833c0,15.468,12.539,28.007,28.007,28.007h0c15.468,0,28.007-12.539,28.007-28.007
		V482.513H435.264z"/>
</g>
<g>
	<path class="st3" d="M463.271,482.513v258.833c0,10.365,5.635,19.407,14.003,24.251c8.369-4.843,14.003-13.886,14.003-24.251
		V482.513H463.271z"/>
</g>
<g>
	<path class="st2" d="M507.539,482.513v258.833c0,15.468,12.539,28.007,28.007,28.007h0c15.468,0,28.007-12.539,28.007-28.007
		V482.513H507.539z"/>
</g>
<g>
	<path class="st3" d="M535.492,741.346V482.513h-27.953v258.833c0,15.468,12.539,28.007,28.007,28.007
		c5.092,0,9.862-1.366,13.976-3.741C541.139,760.773,535.492,751.722,535.492,741.346z"/>
</g>
<g>
	<rect x="435.264" y="357.386" class="st2" width="128.289" height="218.859"/>
</g>
<g>
	<path class="st4" d="M621.556,512.779h-52.271c-3.196,0-5.786,2.591-5.786,5.786v26.738h9.034v-23.49h45.775v23.49h9.034v-26.738
		C627.342,515.37,624.752,512.779,621.556,512.779z"/>
</g>
<g>
	<rect x="518.614" y="545.303" class="st4" width="153.614" height="113.382"/>
</g>
<g>
	<rect x="572.533" y="518.049" class="st5" width="45.527" height="3.764"/>
</g>
<g>
	<polygon class="st6" points="518.614,554.337 518.614,598.154 595.421,616.223 672.227,598.154 672.227,554.337 	"/>
</g>
<g>
	<polygon class="st7" points="518.614,545.303 518.614,589.12 595.421,607.189 672.227,589.12 672.227,545.303 	"/>
</g>
<g>
	<path class="st7" d="M595.421,598.402c-4.853,0-8.787,3.934-8.787,8.787c0,4.853,3.934,8.787,8.787,8.787
		c4.853,0,8.787-3.934,8.787-8.787C604.208,602.336,600.273,598.402,595.421,598.402z"/>
</g>
<g>
	<rect x="518.614" y="648.295" class="st6" width="153.614" height="10.39"/>
</g>
<g>
	<rect x="662.523" y="545.303" class="st3" width="9.705" height="113.382"/>
</g>
<g>
	<path class="st2" d="M577.104,357.386h-23.188v51.948h23.188v107.961h0.285c1.508,8.97,9.289,15.811,18.688,15.811
		s17.18-6.841,18.688-15.811h0.284V395.331C615.049,374.375,598.061,357.386,577.104,357.386z"/>
</g>
<g>
	<path class="st3" d="M563.553,385.386v23.948h13.552v107.961h0.284c1.508,8.97,9.29,15.811,18.688,15.811
		c0.203,0,0.401-0.021,0.602-0.027V423.331C596.679,381.053,563.553,385.386,563.553,385.386z"/>
</g>
<g>
	<path class="st2" d="M334.638,253.806c-8.705-8.705-22.818-8.705-31.523,0h0c-8.705,8.705-8.705,22.818,0,31.522l145.243,145.243
		l31.523-31.523L334.638,253.806z"/>
</g>
<g>
	<path class="st3" d="M315.597,271.061c-5.929-5.929-7.81-14.365-5.663-21.894c-2.473,1.083-4.796,2.615-6.819,4.639h0
		c-8.705,8.705-8.705,22.818,0,31.522l132.149,130.975v-25.576L315.597,271.061z"/>
</g>
<g>
	
		<ellipse transform="matrix(0.9975 -0.0709 0.0709 0.9975 -18.9101 36.1161)" class="st2" cx="499.38" cy="284.479" rx="51.676" ry="51.676"/>
</g>
<g>
	<path class="st3" d="M550.407,276.308c-3.918,24.656-25.268,43.505-51.027,43.505s-47.109-18.849-51.027-43.505
		c-0.423,2.662-0.649,5.39-0.649,8.172c0,28.54,23.136,51.676,51.676,51.676s51.676-23.136,51.676-51.676
		C551.056,281.698,550.83,278.97,550.407,276.308z"/>
</g>
<g>
	<rect x="518.614" y="545.303" class="st3" width="9.705" height="113.382"/>
</g>
<g>
	<path class="st8" d="M478.862,268.136c-7.456,0-13.5,5-13.5,5s6.044,5,13.5,5s13.5-5,13.5-5S486.318,268.136,478.862,268.136z"/>
</g>
<g>
	<path class="st8" d="M521.075,268.136c-7.456,0-13.5,5-13.5,5s6.044,5,13.5,5s13.5-5,13.5-5S528.531,268.136,521.075,268.136z"/>
</g>
<g>
	<rect x="435.264" y="505.803" class="st3" width="128.289" height="23.238"/>
</g>
<g>
	<rect x="487.5" y="505.803" class="st8" width="25.5" height="22.5"/>
</g>
<g>
	<rect x="513" y="413.303" class="st8" width="38.056" height="6"/>
</g>
<g>
	<path class="st8" d="M494.39,377.022l-17.794-23.998c-3.076-4.149-9.25-4.252-12.463-0.208c-2.157,2.714-2.28,6.52-0.304,9.368
		l17.221,24.822c3.124,4.502,9.781,4.505,12.909,0.005l0.573-0.824C496.455,383.417,496.398,379.73,494.39,377.022z"/>
</g>
<g>
	<path class="st8" d="M537.521,352.816c-3.213-4.043-9.387-3.94-12.463,0.208l-17.794,23.998c-2.008,2.708-2.065,6.396-0.141,9.164
		l0.573,0.824c3.127,4.5,9.785,4.498,12.909-0.005l17.221-24.822C539.801,359.335,539.677,355.529,537.521,352.816z"/>
</g>
</svg>
