<?xml version="1.0" encoding="utf-8"?>
<!-- Generator: Adobe Illustrator 22.0.0, SVG Export Plug-In . SVG Version: 6.00 Build 0)  -->
<svg version="1.1" baseProfile="basic" id="Layer_1"
	 xmlns="http://www.w3.org/2000/svg" xmlns:xlink="http://www.w3.org/1999/xlink" x="0px" y="0px" viewBox="0 0 1000 1000"
	 xml:space="preserve">
<style type="text/css">
	.st0{fill:#382B73;}
	.st1{fill:#473080;}
	.st2{fill:#FFFFFF;}
	.st3{fill:#E6E7E8;}
	.st4{fill:#FDDD3A;}
	.st5{fill:#E7AD27;}
	.st6{fill:#FFC633;}
	.st7{fill:#EE5A9C;}
	.st8{fill:#1CADE3;}
	.st9{fill:#177BBF;}
	.st10{fill:#D0D2D3;}
	.st11{fill:#A62973;}
	.st12{fill:#106EA0;}
	.st13{fill:#FFE36C;}
	.st14{fill:#2DBAA4;}
	.st15{fill:#00A48B;}
</style>
<g>
	<circle class="st0" cx="500" cy="500" r="398"/>
</g>
<g>
	<circle class="st1" cx="499.969" cy="500" r="344.33"/>
</g>
<g>
	<path class="st0" d="M630.309,398.963c-5.075-4.188-11.581-6.704-18.675-6.704h-49.696l0,0H562V262h-20.062v-6H458v6h-20v130.259
		h-49.634c-7.094,0-13.6,2.516-18.675,6.704c-6.525,5.385-10.684,13.534-10.684,22.655v296.764
		c0,16.215,13.145,29.359,29.359,29.359h4.3v19.769c0,10.918,8.851,19.769,19.769,19.769h0c10.918,0,19.769-8.851,19.769-19.769
		v-19.769h136.258v19.769c0,10.918,8.851,19.769,19.769,19.769h0c10.918,0,19.769-8.851,19.769-19.769v-19.769h3.634
		c16.215,0,29.359-13.145,29.359-29.359V421.618C640.993,412.497,636.834,404.348,630.309,398.963z M553.604,392.259H446.333l0,0
		H458V287.5h3.092c2.29-1.835,5.649-3,9.402-3c3.754,0,7.112,1.165,9.402,3h0.116c2.29-1.835,5.649-3,9.402-3
		c3.754,0,7.112,1.165,9.402,3h0.116c2.29-1.835,5.649-3,9.402-3c3.754,0,7.112,1.165,9.402,3h0.116c2.29-1.835,5.649-3,9.402-3
		c3.754,0,7.112,1.165,9.402,3h5.28V282H542v110.259H553.604L553.604,392.259z"/>
</g>
<g>
	<path class="st4" d="M611.634,372.259H388.366c-16.215,0-29.359,13.145-29.359,29.359v296.764
		c0,16.215,13.145,29.359,29.359,29.359h223.268c16.215,0,29.359-13.145,29.359-29.359V401.618
		C640.993,385.403,627.848,372.259,611.634,372.259z"/>
</g>
<g>
	<path class="st6" d="M611.634,372.259h-29.329c14.191,0,25.695,11.504,25.695,25.696v304.091c0,14.191-11.504,25.695-25.695,25.695
		h29.329c16.215,0,29.359-13.145,29.359-29.359V401.618C640.993,385.403,627.848,372.259,611.634,372.259z"/>
</g>
<g>
	<path class="st6" d="M392,702.046V397.954c0-14.191,11.504-25.696,25.695-25.696h-29.329c-16.215,0-29.359,13.145-29.359,29.359
		v296.764c0,16.215,13.145,29.359,29.359,29.359h29.329C403.504,727.741,392,716.237,392,702.046z"/>
</g>
<g>
	<path class="st14" d="M611.634,372.259H388.366c-16.215,0-29.359,13.145-29.359,29.359v126.384h281.986V401.618
		C640.993,385.403,627.848,372.259,611.634,372.259z"/>
</g>
<g>
	<path class="st15" d="M388.366,372.259c-16.215,0-29.359,13.145-29.359,29.359v126.384h33.66V401.618
		c0-16.215,10.007-29.359,22.35-29.359H388.366z"/>
</g>
<g>
	<path class="st15" d="M611.634,372.259h-26.651c12.344,0,22.35,13.145,22.35,29.359v126.384h33.66V401.618
		C640.993,385.403,627.848,372.259,611.634,372.259z"/>
</g>
<g>
	<polygon class="st7" points="438,242 438,372.259 458,372.259 458,262 542,262 542,372.259 562,372.259 562,242 	"/>
</g>
<g>
	<path class="st2" d="M458,236v31.5h3.092c2.29-1.835,5.649-3,9.402-3c3.754,0,7.112,1.165,9.402,3h0.116
		c2.29-1.835,5.649-3,9.402-3c3.754,0,7.112,1.165,9.402,3h0.116c2.29-1.835,5.649-3,9.402-3c3.754,0,7.112,1.165,9.402,3h0.116
		c2.29-1.835,5.649-3,9.402-3c3.754,0,7.112,1.165,9.402,3h5.28V236H458z"/>
</g>
<g>
	<path class="st10" d="M530.678,246.5c-4.091,0-7.749,3.617-10.226,9.308c-2.477-5.691-6.135-9.308-10.226-9.308
		s-7.749,3.617-10.226,9.308c-2.477-5.691-6.135-9.308-10.226-9.308s-7.749,3.617-10.226,9.308
		c-2.477-5.691-6.135-9.308-10.226-9.308c-4.747,0-8.914,4.86-11.322,12.194v8.806h3.092c2.29-1.835,5.649-3,9.402-3
		c3.754,0,7.112,1.165,9.402,3h0.116c2.29-1.835,5.649-3,9.402-3c3.754,0,7.112,1.165,9.402,3h0.116c2.29-1.835,5.649-3,9.402-3
		c3.754,0,7.112,1.165,9.402,3h0.116c2.29-1.835,5.649-3,9.402-3c3.754,0,7.112,1.165,9.402,3h5.28v-9.01
		C539.519,251.268,535.381,246.5,530.678,246.5z"/>
</g>
<g>
	<rect x="438" y="242" class="st11" width="8.333" height="130.259"/>
</g>
<g>
	<rect x="553.604" y="242" class="st11" width="8.333" height="130.259"/>
</g>
<g>
	<rect x="392.667" y="528.002" class="st13" width="17.645" height="199.739"/>
</g>
<g>
	<rect x="432.204" y="528.002" class="st13" width="17.645" height="199.739"/>
</g>
<g>
	<rect x="471.742" y="560" class="st13" width="17.645" height="167.741"/>
</g>
<g>
	<rect x="511.28" y="560" class="st13" width="17.645" height="167.741"/>
</g>
<g>
	<rect x="550.817" y="528.002" class="st13" width="17.645" height="199.739"/>
</g>
<g>
	<rect x="590.355" y="528.002" class="st13" width="17.645" height="199.739"/>
</g>
<g>
	<path class="st10" d="M432,506.004v51.746c0,6.766,5.484,12.25,12.25,12.25h111.5c6.766,0,12.25-5.484,12.25-12.25v-51.746H432z
		 M548,550h-96v-23.996h96V550z"/>
</g>
<g>
	<path class="st14" d="M432,496.004v51.746c0,6.766,5.484,12.25,12.25,12.25h111.5c6.766,0,12.25-5.484,12.25-12.25v-51.746H432z
		 M548,540h-96v-23.996h96V540z"/>
</g>
<g>
	<rect x="452" y="516.004" class="st2" width="96" height="23.996"/>
</g>
<g>
	<path class="st2" d="M392.667,727.741v19.769c0,10.918,8.851,19.769,19.769,19.769s19.769-8.851,19.769-19.769v-19.769H392.667z"/>
</g>
<g>
	<path class="st2" d="M568.462,727.741v19.769c0,10.918,8.851,19.769,19.769,19.769h0c10.918,0,19.769-8.851,19.769-19.769v-19.769
		H568.462z"/>
</g>
<g>
	<path class="st10" d="M412.436,754.769L412.436,754.769c-10.918,0-19.769-8.851-19.769-19.769v12.51
		c0,10.918,8.851,19.769,19.769,19.769h0c10.918,0,19.769-8.851,19.769-19.769V735C432.204,745.918,423.354,754.769,412.436,754.769
		z"/>
</g>
<g>
	<path class="st10" d="M588.231,754.769L588.231,754.769c-10.918,0-19.769-8.851-19.769-19.769v12.51
		c0,10.918,8.851,19.769,19.769,19.769h0c10.918,0,19.769-8.851,19.769-19.769V735C608,745.918,599.149,754.769,588.231,754.769z"/>
</g>
<g>
	<path class="st5" d="M611.634,699.744H388.366c-16.215,0-29.359-13.145-29.359-29.359v27.997c0,16.215,13.145,29.359,29.359,29.359
		h223.268c16.215,0,29.359-13.145,29.359-29.359v-27.997C640.993,686.6,627.848,699.744,611.634,699.744z"/>
</g>
<g>
	<path class="st6" d="M575.983,414H426.695c-4.971,0-9,4.029-9,9s4.029,9,9,9h149.288c4.971,0,9-4.029,9-9S580.954,414,575.983,414z
		"/>
</g>
<g>
	<path class="st10" d="M575.983,414H426.695c-4.971,0-9,4.029-9,9c0,1.147,0.223,2.241,0.615,3.25
		c1.304-3.362,4.562-5.75,8.385-5.75h149.288c3.823,0,7.081,2.388,8.385,5.75c0.391-1.009,0.615-2.103,0.615-3.25
		C584.983,418.029,580.954,414,575.983,414z"/>
</g>
<g>
	<rect x="568.462" y="516.004" class="st15" width="72.531" height="11.998"/>
</g>
<g>
	<rect x="359.007" y="516.004" class="st15" width="72.531" height="11.998"/>
</g>
<g>
	<path class="st10" d="M613.083,382.5h-225.5c-10.431,0-18.917,8.486-18.917,18.917v126.585h5V401.417
		c0-7.674,6.243-13.917,13.917-13.917h225.5c7.674,0,13.917,6.243,13.917,13.917v126.585h5V401.417
		C632,390.986,623.514,382.5,613.083,382.5z"/>
</g>
<g>
	<rect x="452" y="516.004" class="st10" width="96" height="11.998"/>
</g>
</svg>
