<?xml version="1.0" encoding="utf-8"?>
<!-- Generator: Adobe Illustrator 22.0.0, SVG Export Plug-In . SVG Version: 6.00 Build 0)  -->
<svg version="1.1" baseProfile="basic" id="Layer_1"
	 xmlns="http://www.w3.org/2000/svg" xmlns:xlink="http://www.w3.org/1999/xlink" x="0px" y="0px" viewBox="0 0 1000 1000"
	 xml:space="preserve">
<style type="text/css">
	.st0{fill:#382B73;}
	.st1{fill:#473080;}
	.st2{fill:#FFFFFF;}
	.st3{fill:#E6E7E8;}
	.st4{fill:#FDDD3A;}
	.st5{fill:#E7AD27;}
	.st6{fill:#FFC633;}
	.st7{fill:#EE5A9C;}
	.st8{fill:#1CADE3;}
	.st9{fill:#177BBF;}
	.st10{fill:#D0D2D3;}
	.st11{fill:#A62973;}
	.st12{fill:#106EA0;}
	.st13{fill:#FFE36C;}
	.st14{fill:#2DBAA4;}
	.st15{fill:#00A48B;}
</style>
<g>
	<circle class="st0" cx="500" cy="500" r="398"/>
</g>
<g>
	<circle class="st1" cx="499.969" cy="500" r="344.33"/>
</g>
<g>
	<path class="st0" d="M686.741,488H431.734c21.765-47.253,48.356-110.068,48.356-134.928c0-42.081-34.113-76.194-76.194-76.194
		c-10.52,0-20.542,2.132-29.658,5.988c-2.279,0.964-4.501,2.035-6.661,3.208c-2.159,1.173-4.255,2.447-6.282,3.817
		c-5.067,3.423-9.7,7.44-13.8,11.95c-2.46,2.706-4.727,5.59-6.781,8.63c-8.216,12.161-13.013,26.821-13.013,42.601
		c0,11.835,6.027,32.274,14.691,55.541c0.481,1.293,0.971,2.594,1.468,3.903c1.988,5.236,4.097,10.596,6.29,16.017
		c1.096,2.71,2.214,5.436,3.347,8.168c2.834,6.831,5.77,13.708,8.734,20.505c0.593,1.359,1.187,2.716,1.782,4.068
		c3.568,8.113,7.157,16.077,10.642,23.677c0.47,1.025,0.937,2.039,1.402,3.05h-62.797l-100,147.142V651h573.481v-15.858L686.741,488
		z"/>
</g>
<g>
	<polygon class="st9" points="686.741,468 313.259,468 213.259,615.142 786.741,615.142 	"/>
</g>
<g>
	<polygon class="st2" points="652.145,490 347.855,490 279.117,591.142 720.883,591.142 	"/>
</g>
<g>
	<rect x="213.259" y="615.142" class="st9" width="573.481" height="15.858"/>
</g>
<g>
	<polygon class="st3" points="583.544,490 500,490 500,591.142 620,591.142 	"/>
</g>
<g>
	<polygon class="st2" points="416.456,490 380,591.142 500,591.142 500,490 	"/>
</g>
<g>
	<polygon class="st2" points="652.145,490 583.544,490 620,591.142 720.883,591.142 	"/>
</g>
<g>
	<polygon class="st3" points="347.855,490 279.117,591.142 380,591.142 416.456,490 	"/>
</g>
<g>
	<path class="st10" d="M537.843,502.651c-28.987,0-132.897,23.349-132.897,23.349s103.91,23.349,132.897,23.349
		c28.987,0,52.486-10.454,52.486-23.349S566.83,502.651,537.843,502.651z"/>
</g>
<g>
	<path class="st7" d="M618.155,533.958c-7.542-1.631-14.993-2.458-22.208-2.458h-0.006c0,0-4.523,1.167-4.107,5.583
		c0.352,3.733,4.167,4.417,4.167,4.417h0.005c6.447,0,13.188,0.751,20.036,2.232c0.356,0.077,0.711,0.114,1.062,0.114
		c2.303,0,4.375-1.601,4.882-3.944C622.569,537.203,620.854,534.542,618.155,533.958z M451.558,559.4
		c-6.651-0.923-12.875-2.93-18.497-5.966c-2.431-1.311-5.463-0.405-6.775,2.024c-1.312,2.43-0.405,5.463,2.024,6.775
		c6.677,3.604,14.036,5.984,21.873,7.072c0.233,0.032,0.465,0.048,0.694,0.048c2.456,0,4.599-1.811,4.946-4.313
		C456.203,562.305,454.293,559.78,451.558,559.4z M492.673,557.925c-6.537,0.913-13.512,1.531-20.73,1.837
		c-2.759,0.117-4.9,2.449-4.783,5.208c0.114,2.687,2.328,4.788,4.992,4.788c0.072,0,0.144-0.001,0.216-0.004
		c7.538-0.321,14.835-0.968,21.688-1.924c2.735-0.382,4.643-2.908,4.261-5.643C497.934,559.451,495.407,557.54,492.673,557.925z
		 M532.749,547.505c-7.233,2.714-13.517,4.742-19.773,6.382c-2.671,0.7-4.269,3.433-3.569,6.104
		c0.589,2.247,2.615,3.734,4.833,3.734c0.419,0,0.846-0.054,1.271-0.165c6.596-1.729,13.189-3.855,20.751-6.691
		c2.585-0.97,3.895-3.853,2.925-6.438C538.217,547.846,535.338,546.536,532.749,547.505z M573.811,533.616
		c-6.613,1.311-13.144,3.218-21.176,6.186c-2.59,0.957-3.914,3.833-2.957,6.423c0.746,2.019,2.657,3.269,4.69,3.269
		c0.576,0,1.161-0.1,1.732-0.312c7.518-2.777,13.579-4.553,19.654-5.756c2.708-0.537,4.469-3.168,3.933-5.877
		C579.15,534.84,576.52,533.077,573.811,533.616z"/>
</g>
<g>
	<path class="st7" d="M417.884,541.072c-3.4-4.038-4.969-7.176-4.976-7.19c-1.207-2.485-4.2-3.52-6.682-2.314
		c-2.484,1.206-3.521,4.198-2.314,6.682c0.082,0.169,2.061,4.201,6.323,9.263c0.989,1.175,2.403,1.78,3.827,1.78
		c1.137,0,2.28-0.386,3.218-1.175C419.392,546.338,419.663,543.184,417.884,541.072z"/>
</g>
<g>
	<ellipse class="st11" cx="652.214" cy="555.455" rx="17.612" ry="10.755"/>
</g>
<g>
	<rect x="213.259" y="615.142" class="st9" width="81.926" height="15.858"/>
</g>
<g>
	<rect x="295.185" y="615.142" class="st12" width="81.926" height="15.858"/>
</g>
<g>
	<rect x="377.111" y="615.142" class="st9" width="81.926" height="15.858"/>
</g>
<g>
	<rect x="459.037" y="615.142" class="st12" width="81.926" height="15.858"/>
</g>
<g>
	<rect x="540.963" y="615.142" class="st9" width="81.926" height="15.858"/>
</g>
<g>
	<rect x="622.889" y="615.142" class="st12" width="81.926" height="15.858"/>
</g>
<g>
	<rect x="704.815" y="615.142" class="st9" width="81.926" height="15.858"/>
</g>
<g>
	<polygon class="st8" points="720.883,591.142 279.117,591.142 213.259,615.142 786.741,615.142 	"/>
</g>
<g>
	<polygon class="st8" points="313.259,468 347.855,490 652.145,490 686.741,468 	"/>
</g>
<g>
	<rect x="347.855" y="490" class="st9" width="304.359" height="5"/>
</g>
<g>
	<path class="st4" d="M403.895,256.877c-42.081,0-76.195,34.113-76.195,76.194S403.895,526,403.895,526
		s76.194-150.847,76.194-192.928S445.976,256.877,403.895,256.877z"/>
</g>
<g>
	<path class="st6" d="M327.701,333.072c0,42.081,76.195,192.928,76.195,192.928V256.877
		C361.814,256.877,327.701,290.991,327.701,333.072z"/>
</g>
<g>
	
		<ellipse transform="matrix(0.7071 -0.7071 0.7071 0.7071 -116.9322 383.0327)" class="st2" cx="403.895" cy="332.666" rx="75.623" ry="75.623"/>
</g>
<g>
	
		<ellipse transform="matrix(0.9871 -0.1602 0.1602 0.9871 -48.0717 68.9921)" class="st5" cx="403.895" cy="332.666" rx="39.074" ry="39.074"/>
</g>
<g>
	<path class="st6" d="M364.821,332.666c0,21.58,17.494,39.074,39.074,39.074v-78.148
		C382.315,293.592,364.821,311.086,364.821,332.666z"/>
</g>
<g>
	<polygon class="st8" points="652.214,490 652.214,495 717,591.142 720.883,591.142 	"/>
</g>
<g>
	<polygon class="st8" points="279.117,591.142 283.667,591.142 347.855,495 347.855,490 	"/>
</g>
</svg>
